<?xml version="1.0" encoding="UTF-8" standalone="no"?>
<!-- Created with Inkscape (http://www.inkscape.org/) -->

<svg
   version="1.1"
   id="svg2"
   width="27"
   height="27"
   viewBox="0 0 27 27"
   sodipodi:docname="firmado.svg"
   inkscape:version="1.2.2 (b0a8486541, 2022-12-01)"
   inkscape:export-filename="firmaB.png"
   inkscape:export-xdpi="96"
   inkscape:export-ydpi="96"
   xmlns:inkscape="http://www.inkscape.org/namespaces/inkscape"
   xmlns:sodipodi="http://sodipodi.sourceforge.net/DTD/sodipodi-0.dtd"
   xmlns="http://www.w3.org/2000/svg"
   xmlns:svg="http://www.w3.org/2000/svg">
  <defs
     id="defs6" />
  <sodipodi:namedview
     id="namedview4"
     pagecolor="#ffffff"
     bordercolor="#000000"
     borderopacity="0.25"
     inkscape:showpageshadow="2"
     inkscape:pageopacity="0.0"
     inkscape:pagecheckerboard="0"
     inkscape:deskcolor="#d1d1d1"
     showgrid="false"
     inkscape:zoom="31.592593"
     inkscape:cx="7.7866353"
     inkscape:cy="13.531653"
     inkscape:window-width="1920"
     inkscape:window-height="1048"
     inkscape:window-x="1366"
     inkscape:window-y="0"
     inkscape:window-maximized="1"
     inkscape:current-layer="g8" />
  <g
     inkscape:groupmode="layer"
     inkscape:label="Image"
     id="g8">
    <path
       style="fill:#000000;fill-opacity:1;stroke-width:0.999993"
       d="m 16.116305,26.870619 c -0.212486,-0.205551 -0.222901,-0.396845 -0.04949,-0.908423 l 0.153152,-0.451751 -0.09359,-0.296131 c -0.157423,-0.498089 -0.22302,-1.591279 -0.1574,-2.623092 0.06171,-0.970519 0.167577,-1.811178 0.295011,-2.342796 0.08191,-0.341629 3.415358,-9.869577 3.474637,-9.931455 0.03375,-0.03523 3.980969,1.450256 4.06674,1.530468 0.05786,0.05408 -3.278142,9.562414 -3.56041,10.148058 -0.687186,1.425738 -1.921853,3.077542 -2.746448,3.674348 -0.253138,0.183209 -0.293694,0.24224 -0.422417,0.614849 -0.185731,0.537642 -0.338854,0.715314 -0.616473,0.715314 -0.146736,0 -0.249682,-0.0388 -0.343327,-0.129389 z m -2.49534,-0.913866 c -0.249026,-0.06274 -0.381539,-0.154028 -0.839384,-0.578305 -0.235319,-0.218062 -0.499132,-0.436176 -0.586256,-0.484694 -0.09082,-0.05058 -0.411449,-0.113014 -0.751545,-0.14635 -0.794271,-0.07785 -1.261217,-0.310926 -1.547886,-0.772636 l -0.08178,-0.131705 -0.233699,0.153995 c -0.542155,0.357244 -0.77899,0.433979 -1.3452,0.435849 -0.4853211,0.0017 -0.5482101,-0.01067 -0.777809,-0.152691 -0.5047811,-0.312073 -0.8928431,-0.921863 -0.9922082,-1.559135 -0.04551,-0.291872 0.016581,-1.29017 0.08771,-1.410312 0.052749,-0.0891 -0.04749,-0.02965 -0.7108541,0.421501 -1.269106,0.863122 -1.8314422,1.089018 -2.7285823,1.096082 -0.3300911,0.0026 -0.6818681,-0.02598 -0.8149092,-0.06621 C 1.1758089,22.422609 0.45512655,21.57321 0.11902155,20.193308 0.00931795,19.742915 -0.00161705,19.575569 1.6495108e-4,18.374515 0.00236495,16.939215 0.02489395,16.737644 0.37375105,15.04324 1.0895623,11.566467 2.0987554,9.5083159 3.6943017,8.2712949 4.1523379,7.9161819 4.9031228,7.5245559 5.357546,7.4037109 c 0.4734881,-0.125915 1.3753772,-0.0846 1.8334123,0.08401 0.8206771,0.302075 1.6125657,1.096237 2.1071467,2.113193 0.382702,0.7869201 0.636043,1.7348891 0.687981,2.5743441 0.02871,0.464359 0.01975,0.550779 -0.07806,0.750895 -0.21495,0.439789 -0.641693,0.671226 -1.113257,0.603759 C 8.501935,13.488007 8.2896403,13.359775 8.0932993,13.106192 7.9673403,12.943508 7.9215761,12.796893 7.8352512,12.279469 7.6087881,10.92206 7.1610751,10.012009 6.560874,9.6890849 6.0801989,9.4304679 5.4262938,9.6684759 4.7010736,10.365997 c -1.0719871,1.03105 -1.7403741,2.726731 -2.3854924,6.051942 -0.1287679,0.663722 -0.1447939,0.869009 -0.148441,1.901465 -0.00339,0.952821 0.011983,1.209402 0.08682,1.451516 0.192755,0.623599 0.3984211,0.812969 0.8698792,0.800966 0.3623161,-0.0093 0.69493,-0.178294 1.7325013,-0.880617 1.3028662,-0.881898 1.9182184,-1.155993 2.7304395,-1.216211 0.3655331,-0.0271 0.5089921,-0.01476 0.6962621,0.0599 0.2955727,0.117836 0.5875617,0.449642 0.6684437,0.759622 0.09045,0.346626 0.02658,1.170057 -0.151518,1.953818 l -0.152091,0.669277 0.348086,-0.181419 c 0.457712,-0.238559 0.69857,-0.303065 1.113705,-0.29827 0.638457,0.0073 1.214418,0.332683 1.450687,0.819358 l 0.135131,0.278361 h 0.304825 c 0.393725,0 0.846804,0.124933 1.233677,0.340167 0.343759,0.191247 1.324555,1.054069 1.510311,1.328642 0.442041,0.6534 0.114454,1.578369 -0.616985,1.742108 -0.300308,0.06723 -0.281245,0.06683 -0.506355,0.01003 z M 22.359602,9.4173989 c -1.274136,-0.491825 -1.977686,-0.790005 -1.973407,-0.836383 0.0117,-0.126695 2.43468,-6.9648743 2.555419,-7.2119137 0.149709,-0.3063071 0.574543,-0.77401175 0.902764,-0.99385875 0.563753,-0.3776092 1.270024,-0.4795523 1.823858,-0.2632563 0.801747,0.313115 1.372727,1.39834905 1.329462,2.52684475 -0.01746,0.4555636 -0.0531,0.5691623 -1.258805,4.009397 -0.90068,2.569963 -1.262547,3.5395781 -1.320037,3.5370181 -0.04357,-0.0018 -0.970227,-0.3474751 -2.059254,-0.7678481 z m -4.21523,0.488942 c -0.302075,-0.156073 -0.495849,-0.465006 -0.524241,-0.835789 -0.02019,-0.263778 0.07942,-0.571222 1.280092,-3.9511772 0.716097,-2.015829 1.34501,-3.7670406 1.397583,-3.8915815 0.09852,-0.23337745 0.354114,-0.47388395 0.579982,-0.54574385 0.233533,-0.074299 0.638405,-0.033209 0.840402,0.085296 0.343556,0.2015484 0.567855,0.68187655 0.499347,1.06931405 -0.05737,0.3243152 -2.622905,7.5009755 -2.759274,7.7185485 -0.281572,0.4492411 -0.836811,0.5976301 -1.313891,0.351133 z"
       id="path293" />
  </g>
</svg>
