<?xml version="1.0" encoding="UTF-8" standalone="no"?>
<!-- Created with Inkscape (http://www.inkscape.org/) -->

<svg
   version="1.1"
   id="svg2"
   width="32"
   height="32"
   viewBox="0 0 32 32"
   sodipodi:docname="firma.svg"
   inkscape:version="1.2.2 (b0a8486541, 2022-12-01)"
   inkscape:export-filename="firma.png"
   inkscape:export-xdpi="96"
   inkscape:export-ydpi="96"
   xmlns:inkscape="http://www.inkscape.org/namespaces/inkscape"
   xmlns:sodipodi="http://sodipodi.sourceforge.net/DTD/sodipodi-0.dtd"
   xmlns="http://www.w3.org/2000/svg"
   xmlns:svg="http://www.w3.org/2000/svg">
  <defs
     id="defs6" />
  <sodipodi:namedview
     id="namedview4"
     pagecolor="#ffffff"
     bordercolor="#000000"
     borderopacity="0.25"
     inkscape:showpageshadow="2"
     inkscape:pageopacity="0.0"
     inkscape:pagecheckerboard="0"
     inkscape:deskcolor="#d1d1d1"
     showgrid="false"
     inkscape:zoom="26.656249"
     inkscape:cx="9.153576"
     inkscape:cy="16.037515"
     inkscape:window-width="1920"
     inkscape:window-height="1048"
     inkscape:window-x="1366"
     inkscape:window-y="0"
     inkscape:window-maximized="1"
     inkscape:current-layer="g8" />
  <g
     inkscape:groupmode="layer"
     inkscape:label="Image"
     id="g8">
    <circle
       style="fill:#ffffff;stroke:#000000;stroke-width:0;stop-color:#000000;fill-opacity:0.01"
       id="path347"
       cx="16"
       cy="16"
       r="16" />
    <path
       style="fill:#000000;stroke-width:0.999992"
       d="M 16.825605,27.884989 C 16.636729,27.702277 16.62747,27.532238 16.78162,27.077502 l 0.136135,-0.401556 -0.08319,-0.263228 c -0.139932,-0.442745 -0.198241,-1.414469 -0.139913,-2.331637 0.05486,-0.862682 0.148958,-1.609935 0.262233,-2.082484 0.07281,-0.30367 3.035872,-8.772957 3.088565,-8.827959 0.03,-0.03131 3.538638,1.289117 3.61488,1.360416 0.05142,0.04807 -2.913904,8.499921 -3.16481,9.020494 -0.610831,1.267323 -1.708312,2.735592 -2.441286,3.266087 -0.225012,0.162853 -0.261061,0.215325 -0.375481,0.546532 -0.165099,0.477905 -0.301207,0.635834 -0.54798,0.635834 -0.130431,0 -0.221938,-0.0345 -0.305179,-0.115012 z m -2.21808,-0.812325 c -0.221356,-0.05577 -0.339145,-0.136913 -0.746118,-0.514048 -0.209173,-0.193834 -0.443674,-0.387713 -0.521116,-0.430839 -0.08073,-0.04495 -0.365734,-0.10046 -0.668041,-0.130089 -0.706018,-0.06919 -1.121082,-0.276379 -1.375898,-0.686788 l -0.0727,-0.117071 -0.207734,0.136885 c -0.481915,0.317549 -0.692435,0.385758 -1.195732,0.38742 -0.431397,0.0015 -0.487298,-0.0095 -0.691386,-0.135724 -0.448694,-0.277399 -0.793638,-0.819434 -0.8819624,-1.385899 -0.040452,-0.259441 0.014737,-1.146817 0.077968,-1.253609 0.046892,-0.0792 -0.042218,-0.02636 -0.6318706,0.374667 -1.1280904,0.767219 -1.6279447,0.968015 -2.4254024,0.974295 -0.2934142,0.0023 -0.6061053,-0.02309 -0.7243637,-0.05885 C 3.5451633,23.931205 2.9045571,23.176186 2.6057975,21.949605 2.5082834,21.549256 2.4985626,21.400504 2.5001466,20.3329 c 0.00194,-1.275821 0.021986,-1.454996 0.3320764,-2.961132 0.6362768,-3.090465 1.5333367,-4.919932 2.9515999,-6.019505 0.4071436,-0.315656 1.074508,-0.663768 1.4784395,-0.771186 0.420878,-0.111925 1.2225568,-0.0752 1.6296996,0.07467 0.72949,0.268511 1.433391,0.974434 1.873019,1.878394 0.34018,0.699485 0.565373,1.542124 0.611538,2.288304 0.02552,0.412765 0.01756,0.489583 -0.06938,0.667463 -0.191067,0.390922 -0.570394,0.596643 -0.989562,0.536673 C 10.057281,15.989341 9.868574,15.875352 9.694049,15.649946 9.582085,15.505338 9.541406,15.375013 9.464673,14.91508 9.263372,13.708495 8.865405,12.899561 8.3318931,12.612518 7.9046265,12.382637 7.3233774,12.594198 6.6787377,13.214216 5.7258606,14.130706 5.131739,15.637978 4.5583,18.59372 c -0.1144598,0.589975 -0.1287055,0.772453 -0.1319472,1.690191 -0.003,0.846951 0.010651,1.075023 0.077173,1.290236 0.1713378,0.554309 0.3541524,0.722639 0.7732254,0.711969 0.3220591,-0.0082 0.6177163,-0.158483 1.5400009,-0.78277 1.1581031,-0.78391 1.7050827,-1.02755 2.4270569,-1.081076 0.324919,-0.02409 0.452438,-0.01312 0.6189,0.05324 0.262731,0.104737 0.522277,0.399682 0.594172,0.675219 0.0804,0.308112 0.02363,1.040051 -0.134683,1.736728 l -0.135192,0.594913 0.30941,-0.161263 c 0.406855,-0.212052 0.620951,-0.269391 0.98996,-0.265129 0.567517,0.0066 1.079484,0.295719 1.289498,0.728319 l 0.120117,0.247432 h 0.270957 c 0.349978,0 0.752713,0.111048 1.096601,0.30237 0.305565,0.169998 1.177383,0.936951 1.342499,1.181016 0.392925,0.5808 0.101739,1.402993 -0.548431,1.548539 -0.266941,0.05976 -0.249996,0.05941 -0.450093,0.009 z M 22.375201,12.37102 c -1.132565,-0.437178 -1.757942,-0.702227 -1.754139,-0.743452 0.0104,-0.112618 2.16416,-6.1909984 2.271484,-6.4105889 0.133074,-0.2722729 0.510704,-0.6880103 0.802457,-0.88343 0.501113,-0.3356524 1.128909,-0.4262686 1.621206,-0.2340054 0.712664,0.2783244 1.220201,1.2429766 1.181744,2.2460838 -0.01553,0.4049454 -0.04721,0.5059219 -1.118939,3.5639079 -0.800603,2.2844106 -1.122263,3.1462916 -1.173365,3.1440146 -0.03873,-0.0017 -0.862424,-0.308866 -1.830448,-0.68253 z m -3.74687,0.434615 c -0.268511,-0.138732 -0.440755,-0.413339 -0.465991,-0.742924 -0.01795,-0.23447 0.0706,-0.507753 1.137858,-3.5121569 0.63653,-1.7918477 1.195564,-3.34848 1.242296,-3.4591831 0.08758,-0.2074465 0.314768,-0.4212301 0.515539,-0.4851054 0.207586,-0.066044 0.567471,-0.029519 0.747024,0.075818 0.305383,0.1791541 0.504761,0.6061123 0.443864,0.9505012 -0.05099,0.2882801 -2.33147,6.6675332 -2.452688,6.8609322 -0.250285,0.399325 -0.743831,0.531225 -1.167902,0.312118 z"
       id="path293" />
  </g>
</svg>
