<?xml version="1.0" encoding="UTF-8" standalone="no"?>
<!-- Created with Inkscape (http://www.inkscape.org/) -->

<svg
   width="500"
   height="500"
   viewBox="0 0 132.29166 132.29167"
   version="1.1"
   id="svg5"
   inkscape:version="1.2.2 (b0a8486541, 2022-12-01)"
   sodipodi:docname="logo_normal.svg"
   xmlns:inkscape="http://www.inkscape.org/namespaces/inkscape"
   xmlns:sodipodi="http://sodipodi.sourceforge.net/DTD/sodipodi-0.dtd"
   xmlns="http://www.w3.org/2000/svg"
   xmlns:svg="http://www.w3.org/2000/svg">
  <sodipodi:namedview
     id="namedview7"
     pagecolor="#ffffff"
     bordercolor="#666666"
     borderopacity="1.0"
     inkscape:pageshadow="2"
     inkscape:pageopacity="0.0"
     inkscape:pagecheckerboard="0"
     inkscape:document-units="px"
     showgrid="false"
     units="px"
     inkscape:zoom="1.7099999"
     inkscape:cx="249.70762"
     inkscape:cy="250.00001"
     inkscape:window-width="1920"
     inkscape:window-height="1048"
     inkscape:window-x="1366"
     inkscape:window-y="0"
     inkscape:window-maximized="1"
     inkscape:current-layer="layer1"
     inkscape:showpageshadow="2"
     inkscape:deskcolor="#d1d1d1" />
  <defs
     id="defs2" />
  <g
     inkscape:label="Capa 1"
     inkscape:groupmode="layer"
     id="layer1">
    <circle
       style="fill:#ffffff;stroke:#000000;stroke-width:3;stroke-miterlimit:4;stroke-dasharray:none;stroke-opacity:1;fill-opacity:1"
       id="path962-3"
       cx="66.145836"
       cy="66.145836"
       r="64.645836" />
    <path
       style="fill:#000000;stroke-width:1"
       d="m 45.10397,110.84422 c -1.22599,-0.29704 -2.52545,-1.04932 -3.32835,-1.92682 -0.79906,-0.87328 -1.59959,-2.4414 -1.59959,-3.13333 0,-0.44746 0.0158,-0.43494 0.38457,0.30513 0.48009,0.9634 1.75592,2.35659 2.62391,2.86527 3.77612,2.21295 9.20307,0.94791 13.40244,-3.12415 1.42736,-1.38409 2.34368,-2.5797 3.16982,-4.13601 0.39708,-0.74801 0.72322,-1.32265 0.72476,-1.27697 0.009,0.27063 -0.53026,1.79283 -0.88285,2.49149 -0.96168,1.90549 -3.27774,4.47178 -5.24581,5.81259 -2.82825,1.92683 -6.54085,2.77894 -9.2489,2.1228 z m 0.68273,-1.80857 c -2.63768,-0.41438 -3.95441,-1.42841 -5.57199,-4.2911 -0.10115,-0.17901 -0.18143,-0.83567 -0.18263,-1.49404 -0.004,-2.51349 0.97366,-4.686188 3.20077,-7.108766 1.87649,-2.041195 3.41488,-2.207624 7.55129,-0.816931 2.69085,0.904682 4.95111,2.509518 5.94487,4.22102 0.58922,1.014747 0.97937,2.361567 0.97937,3.380817 v 0.92142 l -1.05924,1.0318 c -2.32916,2.2688 -4.73215,3.57771 -7.44736,4.0566 -0.88499,0.15609 -2.71461,0.20921 -3.41508,0.0992 z m 12.8806,-7.86127 c -0.1448,-0.46205 -0.38941,-1.0889 -0.54357,-1.392992 -0.15416,-0.304092 -0.23477,-0.626545 -0.17914,-0.716565 0.0572,-0.09259 0.0357,-0.12325 -0.0494,-0.07061 -0.0829,0.0512 -0.33156,-0.168071 -0.55274,-0.487239 -0.53125,-0.766578 -2.0221,-2.159069 -2.96739,-2.771598 -0.41647,-0.269867 -0.74086,-0.506724 -0.72085,-0.526344 0.0201,-0.01963 0.98307,-0.43008 2.14013,-0.912106 1.73307,-0.721985 2.16177,-0.849985 2.43289,-0.726451 0.26508,0.120775 0.47474,0.07069 1.07738,-0.257301 0.84338,-0.459015 1.76417,-1.291733 1.76417,-1.595406 0,-0.773255 -2.51594,-1.578596 -7.74346,-2.478642 -2.57388,-0.443164 -3.14982,-0.601692 -3.51596,-0.967829 -0.55293,-0.552932 -0.23764,-1.114596 0.95916,-1.708665 0.32142,-0.159545 2.22776,-0.829888 4.23628,-1.489643 3.69047,-1.212224 5.77177,-2.052743 5.77177,-2.330866 0,-0.34794 -2.01386,-0.976114 -4.42192,-1.379299 -0.79481,-0.133092 -1.06655,-0.238706 -1.10316,-0.428815 -0.0432,-0.224099 0.0545,-0.243171 0.87544,-0.170986 1.67747,0.147484 3.97935,0.655345 4.79575,1.058083 0.72488,0.357589 0.80781,0.446919 0.84699,0.91232 0.0824,0.978183 -0.76694,1.411627 -6.44435,3.288854 -3.83413,1.267755 -4.53196,1.538226 -4.37458,1.695588 0.0609,0.06087 1.2535,0.312867 2.65026,0.559985 2.98359,0.527858 4.8334,0.928761 5.81222,1.259684 3.29909,1.115342 3.51136,2.757568 0.58693,4.540366 -0.64494,0.393174 -0.82523,0.57551 -0.74879,0.757263 0.51808,1.231815 0.68395,2.099385 0.70218,3.672817 0.0189,1.630717 0.005,1.707067 -0.45747,2.593327 -0.26232,0.50223 -0.49686,0.91315 -0.5212,0.91315 -0.0244,0 -0.16274,-0.37804 -0.30754,-0.84009 z m -8.95966,-7.259054 c -1.14597,-0.341853 -2.11877,-0.656747 -2.16179,-0.699762 -0.0981,-0.09806 2.53266,-0.943396 3.51485,-1.129444 1.14711,-0.217294 3.66232,-0.0856 4.67529,0.244779 l 0.87662,0.285916 -1.95196,0.973206 c -1.24531,0.620879 -2.11803,0.968427 -2.4107,0.960022 -0.2523,-0.0073 -1.39635,-0.292864 -2.54231,-0.634717 z m 26.40971,-3.742585 c -8.65101,-0.747812 -15.13708,-3.169394 -13.83042,-5.163606 0.51088,-0.779712 2.93,-1.597219 5.64866,-1.908907 0.64268,-0.07368 5.36792,-0.240405 6.46506,-0.22811 0.22876,0.0028 0.25568,-0.173042 0.25568,-1.668693 0,-0.91936 -0.0493,-1.701262 -0.10958,-1.737557 -0.0603,-0.03627 -0.4383,-0.108644 -0.84009,-0.160776 -0.70764,-0.09183 -2.24873,-0.32327 -2.99511,-0.44982 -0.20089,-0.03406 -1.05559,-0.160988 -1.89934,-0.282069 -0.84375,-0.121081 -3.07912,-0.451143 -4.96751,-0.733469 -1.88838,-0.282325 -5.0442,-0.745977 -7.01293,-1.030336 -3.23595,-0.467384 -3.6801,-0.56593 -4.62732,-1.026709 -1.79406,-0.872718 -3.05057,-2.615055 -3.40374,-4.719752 -0.11283,-0.672426 -0.14945,-4.326385 -0.11885,-11.856631 0.0441,-10.830266 0.0459,-10.888932 0.36788,-11.737274 1.11571,-2.939278 2.92687,-4.538417 5.88269,-5.194076 1.88481,-0.418098 10.66802,-2.477647 11.24992,-2.637967 0.28126,-0.07749 0.74148,-0.178986 1.02273,-0.22555 0.28125,-0.04658 0.7086,-0.14555 0.94967,-0.219975 0.24106,-0.07442 3.56125,-0.864732 7.37819,-1.756245 8.03702,-1.877204 9.71287,-2.271081 13.00317,-3.056169 1.32587,-0.316365 3.16678,-0.74701 4.09088,-0.956981 0.9241,-0.209972 2.76499,-0.654533 4.09089,-0.987902 2.17345,-0.546484 2.59217,-0.606921 4.25475,-0.614151 l 1.84406,-0.008 1.14663,0.584414 c 0.8661,0.441432 1.27751,0.758117 1.68155,1.294435 0.9443,1.253391 1.58895,2.471326 2.02146,3.81917 0.82112,2.558912 0.81283,2.345948 0.81283,20.892721 v 17.094045 l -0.33041,0.955449 c -0.35907,1.038315 -1.86564,3.487168 -1.96393,3.192277 -0.0334,-0.100387 -0.20418,0.05077 -0.38163,0.337878 -0.75485,1.221376 -2.27639,2.245795 -4.01048,2.700152 -1.19974,0.314347 -3.68513,0.311922 -5.65925,-0.0057 -0.84374,-0.13568 -5.3145,-0.805205 -9.93501,-1.487822 -4.62049,-0.682631 -8.51807,-1.267321 -8.66126,-1.299306 -0.23951,-0.05348 -0.25705,0.07241 -0.21915,1.573041 l 0.0412,1.631204 1.86526,0.240441 c 5.40811,0.697152 9.54001,1.970631 10.95239,3.375609 1.1312,1.12527 0.43666,2.060196 -2.10139,2.828686 -2.04696,0.619791 -8.29165,0.950806 -11.95813,0.633871 z m 24.14467,-10.461234 c 1.09246,-0.306532 1.99165,-1.162397 2.47272,-2.353565 l 0.33861,-0.838442 0.0401,-19.267805 c 0.0356,-17.107093 0.0145,-19.368107 -0.1889,-20.162203 -0.62983,-2.459092 -2.03642,-2.850759 -6.42591,-1.789316 -2.25854,0.546157 -4.4808,1.069876 -6.64769,1.566668 -0.68302,0.1566 -1.47197,0.34559 -1.75322,0.419973 -0.28125,0.07439 -3.07547,0.732878 -6.20937,1.463303 -5.8426,1.361749 -6.91289,1.613198 -9.56975,2.248186 -2.59822,0.620977 -10.96428,2.585166 -12.1996,2.864227 -3.66177,0.8272 -6.84617,1.629682 -7.20665,1.816092 -0.61495,0.318002 -1.47005,1.332537 -1.90504,2.260217 l -0.38501,0.821099 -0.0402,10.725035 c -0.0351,9.379946 -0.0116,10.823686 0.18845,11.511643 0.24135,0.830222 1.00231,1.813085 1.67173,2.159254 0.20951,0.108337 3.0744,0.598934 6.36646,1.090198 3.29205,0.491271 6.18279,0.923768 6.42385,0.961116 0.24107,0.03733 1.75324,0.26336 3.36038,0.502265 1.60713,0.238912 3.15217,0.469049 3.43341,0.511424 0.28124,0.04238 1.2017,0.180032 2.04544,0.305913 0.84375,0.125873 2.61891,0.391872 3.94478,0.591104 1.32589,0.199246 2.67369,0.397966 2.99511,0.441621 0.32143,0.04366 1.37337,0.202247 2.33766,0.352426 0.96427,0.15018 3.16678,0.481842 4.89444,0.737017 1.72767,0.255183 4.32465,0.644765 5.77107,0.86575 3.12749,0.477817 5.0317,0.537806 6.24705,0.1968 z m -69.80184,7.611869 c -3.53569,-0.594567 -6.47784,-1.082603 -6.53811,-1.08453 -0.0603,-0.0021 -0.10957,-10.15877 -0.10957,-22.570773 V 41.100798 l 0.54789,-0.146851 c 0.30133,-0.08076 3.04624,-0.742394 6.09979,-1.470288 3.05356,-0.727879 5.84888,-1.396039 6.21183,-1.484792 0.63721,-0.155812 0.80315,-0.112349 4.8214,1.263011 2.28881,0.783403 5.09802,1.741135 6.2427,2.128285 1.14467,0.387165 2.14848,0.745494 2.23068,0.79631 0.0908,0.05611 0.0201,0.248739 -0.18017,0.490446 l -0.32966,0.398051 -5.99192,-1.998961 c -3.29555,-1.099429 -6.04122,-1.969622 -6.10149,-1.933761 -0.14328,0.08524 -0.14328,48.080449 0,48.157512 0.0603,0.03243 3.19965,-1.184064 6.97641,-2.703282 3.77677,-1.519226 7.1627,-2.866113 7.5243,-2.993081 1.00486,-0.352832 1.02273,-0.383247 1.02273,-1.741412 v -1.223993 h 0.65746 0.65746 v 1.654706 1.654698 l -3.8352,1.486315 c -2.10936,0.817472 -4.16393,1.61007 -4.56571,1.761323 -0.40179,0.151261 -2.43635,0.940303 -4.52125,1.753437 -2.08489,0.813134 -3.92579,1.473358 -4.09088,1.467171 -0.16508,-0.0064 -3.19299,-0.497706 -6.72869,-1.092266 z m 0.23055,-16.83476 c 0.84713,-0.756914 0.82531,-2.447139 -0.041,-3.176092 -1.65158,-1.389717 -3.28049,1.609315 -1.72109,3.168718 0.54499,0.544981 1.15755,0.547541 1.7621,0.0073 z M 30.07348,52.3371 c 2.54302,-0.403094 4.70586,-0.762631 4.80632,-0.798983 0.26493,-0.09589 0.25922,-2.997333 -0.005,-2.997333 -0.1625,0 -2.724,0.518513 -7.94511,1.608284 -2.34304,0.489059 -2.09359,0.287097 -2.09359,1.694876 0,1.148686 0.0194,1.226041 0.30729,1.226041 0.16901,0 2.38795,-0.329806 4.93098,-0.732885 z"
       id="path1080" />
  </g>
</svg>
