<?xml version="1.0" encoding="UTF-8" standalone="no"?>
<!-- Created with Inkscape (http://www.inkscape.org/) -->

<svg
   width="5mm"
   height="40mm"
   viewBox="0 0 5 40"
   version="1.1"
   id="svg6497"
   inkscape:version="1.2.2 (b0a8486541, 2022-12-01)"
   sodipodi:docname="piedepaginaSOLGRAF.svg"
   xmlns:inkscape="http://www.inkscape.org/namespaces/inkscape"
   xmlns:sodipodi="http://sodipodi.sourceforge.net/DTD/sodipodi-0.dtd"
   xmlns="http://www.w3.org/2000/svg"
   xmlns:svg="http://www.w3.org/2000/svg">
  <sodipodi:namedview
     id="namedview6499"
     pagecolor="#ffffff"
     bordercolor="#000000"
     borderopacity="0.25"
     inkscape:showpageshadow="2"
     inkscape:pageopacity="0.0"
     inkscape:pagecheckerboard="0"
     inkscape:deskcolor="#d1d1d1"
     inkscape:document-units="mm"
     showgrid="false"
     inkscape:zoom="5.2924836"
     inkscape:cx="-33.916024"
     inkscape:cy="75.673357"
     inkscape:window-width="1680"
     inkscape:window-height="1024"
     inkscape:window-x="0"
     inkscape:window-y="0"
     inkscape:window-maximized="1"
     inkscape:current-layer="g676" />
  <defs
     id="defs6494">
    <clipPath
       id="id0">
     <path
   d="m 398.617,161.478 c -3.5891,-3.7723 -2.3601,-10.3958 -6.6702,-12.5149 -9.7655,-5.6074 -18.7309,19.0712 -20.898,24.9266 17.7386,6.7716 28.0614,15.202 24.552,21.7234 -2.0163,4.3952 -8.4895,3.0578 -12.1264,6.6947 -12.4403,12.4403 6.3093,32.1266 18.7395,19.6964 3.6369,-3.6369 2.4939,-10.3046 6.8299,-12.2617 6.4464,-3.4344 14.4099,7.3553 20.5713,25.7041 5.7635,-2.0752 30.0509,-10.6494 24.8263,-20.7977 -1.9591,-4.4701 -8.4482,-3.3754 -12.0373,-7.1478 -12.2028,-12.8259 6.7974,-31.7834 18.9794,-18.9794 3.5891,3.7724 2.3607,10.3951 6.6708,12.5143 9.7653,5.6076 18.7305,-19.0708 20.8971,-24.9257 -17.7385,-6.7717 -28.0611,-15.2023 -24.5517,-21.7237 2.0159,-4.3947 8.4893,-3.0575 12.1262,-6.6944 12.4298,-12.4298 -6.2996,-32.1363 -18.7395,-19.6965 -3.6369,3.6369 -2.4942,10.3048 -6.8297,12.2615 -6.4464,3.4344 -14.4101,-7.3551 -20.5715,-25.7039 -5.7631,2.0748 -30.0503,10.6488 -24.8254,20.7968 1.959,4.4702 8.4475,3.3762 12.0366,7.1485 12.2032,12.8264 -6.7981,31.7828 -18.9794,18.9794 z"
   id="path9"
   inkscape:connector-curvature="0" />

    </clipPath>
  </defs>
  <g
     inkscape:label="Capa 1"
     inkscape:groupmode="layer"
     id="layer1">
    <g
       transform="matrix(0,-0.00993495,0.00993495,0,-184.22438,150.16876)"
       id="g3587"
       style="clip-rule:evenodd;fill:#000000;fill-rule:evenodd;stroke-width:1.00655;image-rendering:optimizeQuality;shape-rendering:geometricPrecision;text-rendering:geometricPrecision" />
    <g
       id="g6817"
       transform="rotate(180,2.5,29.913247)">
      <text
         xml:space="preserve"
         style="font-size:1.41111px;font-family:Arial;-inkscape-font-specification:Arial;text-align:center;text-anchor:middle;fill:#000000;stroke-width:0.2"
         x="-23.474693"
         y="-51.427689"
         id="text403"
         transform="scale(-1)"><tspan
           sodipodi:role="line"
           id="tspan401"
           style="font-size:1.41111px;fill:#000000;stroke-width:0.2"
           x="-23.474693"
           y="-51.427689">DISEÑO WEB</tspan></text>
      <g
         id="g676"
         transform="translate(4.6213899e-8,5.6587538)">
        <g
           id="g38"
           transform="matrix(0.02934949,0.01674065,0.01632653,-0.02862346,-13.67743,39.56739)"
           style="fill-rule:evenodd;stroke-width:27.8948">
   <g
   clip-path="url(#id0)"
   id="g40"
   style="stroke-width:27.8948">
    <polygon
   style="fill:#3e4095;stroke-width:27.8948"
   id="polygon42"
   points="570.625,175.032 429.968,315.625 289.375,174.968 430.032,34.3746 570.625,175.032 548.8,175.027 429.973,293.8 311.2,174.973 430.027,56.1996 548.8,175.027 "
   class="fil4" />

    <polygon
   style="fill:#3d4197;stroke-width:27.8948"
   points="551.275,175.028 429.972,296.275 308.725,174.972 430.028,53.7247 551.275,175.028 546.325,175.026 429.974,291.325 313.675,174.974 430.027,58.6746 546.325,175.026 "
   class="fil5"
   id="1-9" />

    <polygon
   style="fill:#3c4398;stroke-width:27.8948"
   points="548.8,175.027 429.973,293.8 311.2,174.973 430.027,56.1997 548.8,175.027 543.85,175.026 429.974,288.85 316.15,174.974 430.026,61.1497 543.85,175.026 "
   class="fil6"
   id="12" />

    <polygon
   style="fill:#3a4599;stroke-width:27.8948"
   points="546.325,175.027 429.974,291.325 313.675,174.974 430.027,58.6747 546.325,175.027 541.375,175.025 429.975,286.375 318.625,174.975 430.025,63.6247 541.375,175.025 "
   class="fil7"
   id="123" />

    <polygon
   style="fill:#39479a;stroke-width:27.8948"
   points="543.85,175.026 429.974,288.85 316.15,174.974 430.026,61.1497 543.85,175.026 538.9,175.025 429.975,283.9 321.1,174.975 430.025,66.0997 538.9,175.025 "
   class="fil8"
   id="1234" />

    <polygon
   style="fill:#37499b;stroke-width:27.8948"
   points="541.375,175.025 429.975,286.375 318.625,174.975 430.025,63.6247 541.375,175.025 536.425,175.024 429.976,281.425 323.575,174.976 430.024,68.5747 536.425,175.024 "
   class="fil9"
   id="12345" />

    <polygon
   style="fill:#364b9c;stroke-width:27.8948"
   points="538.9,175.025 429.975,283.9 321.1,174.975 430.025,66.0998 538.9,175.025 533.95,175.024 429.976,278.95 326.05,174.976 430.024,71.0497 533.95,175.024 "
   class="fil10"
   id="123456" />

    <polygon
   style="fill:#344d9e;stroke-width:27.8948"
   points="536.425,175.024 429.976,281.425 323.575,174.976 430.024,68.5748 536.425,175.024 531.475,175.023 429.977,276.475 328.525,174.977 430.023,73.5247 531.475,175.023 "
   class="fil11"
   id="1234567" />

    <polygon
   style="fill:#324f9f;stroke-width:27.8948"
   points="533.95,175.024 429.976,278.95 326.05,174.976 430.024,71.0498 533.95,175.024 529,175.023 429.978,274 331,174.977 430.023,75.9997 529,175.023 "
   class="fil12"
   id="12345678" />

    <polygon
   style="fill:#3050a0;stroke-width:27.8948"
   points="531.475,175.023 429.977,276.475 328.525,174.977 430.023,73.5248 531.475,175.023 526.525,175.022 429.978,271.525 333.475,174.978 430.022,78.4748 526.525,175.022 "
   class="fil13"
   id="123456789" />

    <polygon
   style="fill:#2e52a1;stroke-width:27.8948"
   points="529,175.023 429.978,274 331,174.977 430.023,75.9998 529,175.023 524.05,175.021 429.979,269.05 335.95,174.979 430.022,80.9498 524.05,175.021 "
   class="fil14"
   id="12345678910" />

    <polygon
   style="fill:#2c54a3;stroke-width:27.8948"
   points="526.525,175.022 429.978,271.525 333.475,174.978 430.022,78.4748 526.525,175.022 521.575,175.021 429.979,266.575 338.425,174.979 430.021,83.4248 521.575,175.021 "
   class="fil15"
   id="1234567891011" />

    <polygon
   style="fill:#2a56a4;stroke-width:27.8948"
   points="524.05,175.021 429.979,269.05 335.95,174.979 430.021,80.9499 524.05,175.021 519.1,175.02 429.98,264.1 340.9,174.98 430.02,85.8998 519.1,175.02 "
   class="fil16"
   id="123456789101112" />

    <polygon
   style="fill:#2658a5;stroke-width:27.8948"
   points="521.575,175.021 429.979,266.575 338.425,174.979 430.021,83.4249 521.575,175.021 516.625,175.02 429.98,261.625 343.375,174.98 430.02,88.3748 516.625,175.02 "
   class="fil17"
   id="12345678910111213" />

    <polygon
   style="fill:#235aa7;stroke-width:27.8948"
   points="519.1,175.02 429.98,264.1 340.9,174.98 430.02,85.8999 519.1,175.02 514.15,175.019 429.981,259.15 345.85,174.981 430.019,90.8498 514.15,175.019 "
   class="fil18"
   id="1234567891011121314" />

    <polygon
   style="fill:#205ca8;stroke-width:27.8948"
   points="516.625,175.02 429.98,261.625 343.375,174.98 430.02,88.3749 516.625,175.02 511.675,175.018 429.981,256.675 348.325,174.981 430.019,93.3249 511.675,175.018 "
   class="fil19"
   id="123456789101112131415" />

    <polygon
   style="fill:#1d5da9;stroke-width:27.8948"
   points="514.15,175.019 429.981,259.15 345.85,174.981 430.019,90.8499 514.15,175.019 509.2,175.018 429.982,254.2 350.8,174.982 430.018,95.7997 509.2,175.018 "
   class="fil20"
   id="12345678910111213141516" />

    <polygon
   style="fill:#185faa;stroke-width:27.8948"
   points="511.675,175.019 429.981,256.675 348.325,174.981 430.019,93.3248 511.675,175.019 506.725,175.017 429.983,251.725 353.275,174.982 430.018,98.2747 506.725,175.017 "
   class="fil21"
   id="1234567891011121314151617" />

    <polygon
   style="fill:#1261ac;stroke-width:27.8948"
   points="509.2,175.018 429.982,254.2 350.8,174.982 430.018,95.7998 509.2,175.018 504.25,175.017 429.983,249.25 355.75,174.983 430.017,100.75 504.25,175.017 "
   class="fil22"
   id="123456789101112131415161718" />

    <polygon
   style="fill:#0a63ad;stroke-width:27.8948"
   points="506.725,175.018 429.983,251.725 353.275,174.982 430.018,98.2748 506.725,175.018 501.775,175.016 429.984,246.775 358.225,174.984 430.016,103.225 501.775,175.016 "
   class="fil23"
   id="12345678910111213141516171819" />

    <polygon
   style="fill:#0565af;stroke-width:27.8948"
   points="504.25,175.017 429.983,249.25 355.75,174.983 430.017,100.75 504.25,175.017 499.3,175.016 429.984,244.3 360.7,174.984 430.016,105.7 499.3,175.016 "
   class="fil24"
   id="1234567891011121314151617181920" />

    <polygon
   style="fill:#0366b0;stroke-width:27.8948"
   points="501.775,175.016 429.984,246.775 358.225,174.984 430.016,103.225 501.775,175.016 496.825,175.015 429.985,241.825 363.175,174.985 430.015,108.175 496.825,175.015 "
   class="fil25"
   id="123456789101112131415161718192021" />

    <polygon
   style="fill:#0268b1;stroke-width:27.8948"
   points="499.3,175.016 429.984,244.3 360.7,174.984 430.016,105.7 499.3,175.016 494.35,175.015 429.985,239.35 365.65,174.985 430.015,110.65 494.35,175.015 "
   class="fil26"
   id="12345678910111213141516171819202122" />

    <polygon
   style="fill:#016ab3;stroke-width:27.8948"
   points="496.825,175.015 429.985,241.825 363.175,174.985 430.015,108.175 496.825,175.015 491.875,175.014 429.986,236.875 368.125,174.986 430.014,113.125 491.875,175.014 "
   class="fil27"
   id="1234567891011121314151617181920212223" />

    <polygon
   style="fill:#006bb4;stroke-width:27.8948"
   points="494.35,175.015 429.985,239.35 365.65,174.985 430.015,110.65 494.35,175.015 489.4,175.013 429.986,234.4 370.6,174.987 430.014,115.6 489.4,175.013 "
   class="fil28"
   id="123456789101112131415161718192021222324" />

    <polygon
   style="fill:#006db5;stroke-width:27.8948"
   points="491.875,175.014 429.986,236.875 368.125,174.986 430.014,113.125 491.875,175.014 486.925,175.013 429.987,231.925 373.075,174.987 430.013,118.075 486.925,175.013 "
   class="fil29"
   id="12345678910111213141516171819202122232425" />

    <polygon
   style="fill:#006fb7;stroke-width:27.8948"
   points="489.4,175.013 429.986,234.4 370.6,174.987 430.014,115.6 489.4,175.013 484.45,175.012 429.988,229.45 375.55,174.988 430.013,120.55 484.45,175.012 "
   class="fil30"
   id="1234567891011121314151617181920212223242526" />

    <polygon
   style="fill:#0070b8;stroke-width:27.8948"
   points="486.925,175.013 429.987,231.925 373.075,174.987 430.013,118.075 486.925,175.013 481.975,175.012 429.988,226.975 378.025,174.988 430.012,123.025 481.975,175.012 "
   class="fil31"
   id="123456789101112131415161718192021222324252627" />

    <polygon
   style="fill:#0072b9;stroke-width:27.8948"
   points="484.45,175.012 429.988,229.45 375.55,174.988 430.012,120.55 484.45,175.012 479.5,175.011 429.989,224.5 380.5,174.989 430.011,125.5 479.5,175.011 "
   class="fil32"
   id="12345678910111213141516171819202122232425262728" />

    <polygon
   style="fill:#0074bb;stroke-width:27.8948"
   points="481.975,175.012 429.988,226.975 378.025,174.988 430.012,123.025 481.975,175.012 477.025,175.011 429.989,222.025 382.975,174.989 430.011,127.975 477.025,175.011 "
   class="fil33"
   id="1234567891011121314151617181920212223242526272829" />

    <polygon
   style="fill:#0075bc;stroke-width:27.8948"
   points="479.5,175.011 429.989,224.5 380.5,174.989 430.011,125.5 479.5,175.011 474.55,175.01 429.99,219.55 385.45,174.99 430.01,130.45 474.55,175.01 "
   class="fil34"
   id="123456789101112131415161718192021222324252627282930" />

    <polygon
   style="fill:#0077be;stroke-width:27.8948"
   points="477.025,175.011 429.989,222.025 382.975,174.989 430.011,127.975 477.025,175.011 472.075,175.01 429.99,217.075 387.925,174.99 430.01,132.925 472.075,175.01 "
   class="fil35"
   id="12345678910111213141516171819202122232425262728293031" />

    <polygon
   style="fill:#0079bf;stroke-width:27.8948"
   points="474.55,175.01 429.99,219.55 385.45,174.99 430.01,130.45 474.55,175.01 469.6,175.009 429.991,214.6 390.4,174.991 430.009,135.4 469.6,175.009 "
   class="fil36"
   id="1234567891011121314151617181920212223242526272829303132" />

    <polygon
   style="fill:#007bc1;stroke-width:27.8948"
   points="472.075,175.01 429.99,217.075 387.925,174.99 430.01,132.925 472.075,175.01 467.125,175.008 429.991,212.125 392.875,174.992 430.009,137.875 467.125,175.008 "
   class="fil37"
   id="123456789101112131415161718192021222324252627282930313233" />

    <polygon
   style="fill:#007cc2;stroke-width:27.8948"
   points="469.6,175.009 429.991,214.6 390.4,174.991 430.009,135.4 469.6,175.009 464.65,175.008 429.992,209.65 395.35,174.992 430.008,140.35 464.65,175.008 "
   class="fil38"
   id="12345678910111213141516171819202122232425262728293031323334" />

    <polygon
   style="fill:#007ec4;stroke-width:27.8948"
   points="467.125,175.009 429.991,212.125 392.875,174.992 430.009,137.875 467.125,175.009 462.175,175.007 429.993,207.175 397.825,174.993 430.007,142.825 462.175,175.007 "
   class="fil39"
   id="1234567891011121314151617181920212223242526272829303132333435" />

    <polygon
   style="fill:#0080c5;stroke-width:27.8948"
   points="464.65,175.008 429.992,209.65 395.35,174.992 430.008,140.35 464.65,175.008 459.7,175.007 429.993,204.7 400.3,174.993 430.007,145.3 459.7,175.007 "
   class="fil40"
   id="123456789101112131415161718192021222324252627282930313233343536" />

    <polygon
   style="fill:#0082c7;stroke-width:27.8948"
   points="462.175,175.007 429.993,207.175 397.825,174.993 430.007,142.825 462.175,175.007 457.225,175.006 429.994,202.225 402.775,174.994 430.006,147.775 457.225,175.006 "
   class="fil41"
   id="12345678910111213141516171819202122232425262728293031323334353637" />

    <polygon
   style="fill:#0084c8;stroke-width:27.8948"
   points="459.7,175.007 429.993,204.7 400.3,174.993 430.007,145.3 459.7,175.007 454.75,175.006 429.994,199.75 405.25,174.994 430.006,150.25 454.75,175.006 "
   class="fil42"
   id="1234567891011121314151617181920212223242526272829303132333435363738" />

    <polygon
   style="fill:#0085ca;stroke-width:27.8948"
   points="457.225,175.006 429.994,202.225 402.775,174.994 430.006,147.775 457.225,175.006 452.275,175.005 429.995,197.275 407.725,174.995 430.005,152.725 452.275,175.005 "
   class="fil43"
   id="123456789101112131415161718192021222324252627282930313233343536373839" />

    <polygon
   style="fill:#0087cb;stroke-width:27.8948"
   points="454.75,175.006 429.994,199.75 405.25,174.994 430.006,150.25 454.75,175.006 449.8,175.004 429.995,194.8 410.2,174.995 430.005,155.2 449.8,175.004 "
   class="fil44"
   id="12345678910111213141516171819202122232425262728293031323334353637383940" />

    <polygon
   style="fill:#0089cd;stroke-width:27.8948"
   points="452.275,175.005 429.995,197.275 407.725,174.995 430.005,152.725 452.275,175.005 447.325,175.004 429.996,192.325 412.675,174.996 430.004,157.675 447.325,175.004 "
   class="fil45"
   id="1234567891011121314151617181920212223242526272829303132333435363738394041" />

    <polygon
   style="fill:#008bcf;stroke-width:27.8948"
   points="449.8,175.005 429.995,194.8 410.2,174.995 430.005,155.2 449.8,175.005 444.85,175.003 429.997,189.85 415.15,174.997 430.004,160.15 444.85,175.003 "
   class="fil46"
   id="123456789101112131415161718192021222324252627282930313233343536373839404142" />

    <polygon
   style="fill:#008dd1;stroke-width:27.8948"
   points="447.325,175.004 429.996,192.325 412.675,174.996 430.004,157.675 447.325,175.004 442.375,175.003 429.997,187.375 417.625,174.997 430.003,162.625 442.375,175.003 "
   class="fil47"
   id="12345678910111213141516171819202122232425262728293031323334353637383940414243" />

    <polygon
   style="fill:#008fd2;stroke-width:27.8948"
   points="444.85,175.003 429.997,189.85 415.15,174.997 430.003,160.15 444.85,175.003 439.9,175.002 429.998,184.9 420.1,174.998 430.002,165.1 439.9,175.002 "
   class="fil48"
   id="1234567891011121314151617181920212223242526272829303132333435363738394041424344" />

    <polygon
   style="fill:#0091d4;stroke-width:27.8948"
   points="442.375,175.003 429.997,187.375 417.625,174.997 430.003,162.625 442.375,175.003 437.425,175.002 429.998,182.425 422.575,174.998 430.002,167.575 437.425,175.002 "
   class="fil49"
   id="123456789101112131415161718192021222324252627282930313233343536373839404142434445" />

    <polygon
   style="fill:#0092d5;stroke-width:27.8948"
   points="439.9,175.002 429.998,184.9 420.1,174.998 430.002,165.1 439.9,175.002 434.95,175.001 429.999,179.95 425.05,174.999 430.001,170.05 434.95,175.001 "
   class="fil50"
   id="12345678910111213141516171819202122232425262728293031323334353637383940414243444546" />

    <polygon
   style="fill:#0094d7;stroke-width:27.8948"
   points="437.425,175.002 429.998,182.425 422.575,174.998 430.002,167.575 437.425,175.002 432.475,175 429.999,177.475 427.525,174.999 430.001,172.525 432.475,175 "
   class="fil51"
   id="1234567891011121314151617181920212223242526272829303132333435363738394041424344454647" />

    <polygon
   style="fill:#0096d8;stroke-width:27.8948"
   points="425.05,174.999 430.001,170.05 434.95,175.001 430,175 434.95,175.001 429.999,179.95 "
   class="fil52"
   id="123456789101112131415161718192021222324252627282930313233343536373839404142434445464748" />

    <polygon
   style="fill:#0098da;stroke-width:27.8948"
   points="432.475,175.001 429.999,177.475 427.525,174.999 430.001,172.525 "
   class="fil53"
   id="12345678910111213141516171819202122232425262728293031323334353637383940414243444546474849" />

   </g>

  </g>
        <g
           id="g3584"
           style="clip-rule:evenodd;fill-rule:evenodd;stroke-width:1.00655;image-rendering:optimizeQuality;shape-rendering:geometricPrecision;text-rendering:geometricPrecision;fill:#000080"
           transform="matrix(0.00993495,0,0,0.00993495,-219.43324,-206.36985)">
          <path
             class="fil5 str2"
             d="m 22333,24012 c 10,0 15,5 15,15 v 52 c 0,10 -5,15 -15,15 h -136 c -10,0 -15,-5 -15,-15 v -52 c 0,-10 5,-15 15,-15 h 36 v 25 h -30 v 32 h 124 v -32 h -47 v 18 h -21 v -43 z m 15,-105 v 26 l -77,28 c 0,0 -5,0 -15,0 v -25 h -53 v 31 h 145 v 25 h -166 v -66 c 0,-9 5,-14 15,-14 h 61 c 7,0 11,2 13,7 1,2 2,8 2,16 z m 0,-99 v 25 l -32,5 v 31 l 32,5 v 24 0 l -166,-32 v -26 z m -53,33 -75,12 75,12 z m -148,-21 28,31 v 18 h -1 l -28,-19 v -30 z m 57,-93 v 42 h 49 v -36 h 22 v 36 h 73 v 25 h -166 v -67 z m 144,-40 v 25 h -166 v -25 z m -15,-102 c 10,0 15,5 15,15 v 52 c 0,10 -5,15 -15,15 h -136 c -10,0 -15,-5 -15,-15 v -52 c 0,-10 5,-15 15,-15 h 39 v 25 h -33 v 32 h 124 v -32 h -35 v -25 z m 15,-103 v 24 l -32,5 v 31 l 32,5 v 25 0 l -166,-32 v -26 z m -53,33 -75,12 75,12 z m 38,-127 c 10,0 15,5 15,15 v 50 c 0,10 -5,15 -15,15 h -40 v -25 h 34 v -30 h -32 l -48,50 c -3,3 -7,5 -13,5 h -37 c -10,0 -15,-5 -15,-15 v -50 c 0,-10 5,-15 15,-15 h 37 v 25 h -31 v 30 h 30 l 47,-49 c 3,-4 8,-6 13,-6 z"
             id="path3583"
             style="fill:#000080;fill-rule:nonzero;stroke:#fefefe;stroke-width:9.65279" />
          <path
             id="path3584"
             class="fil6"
             d="m 22333,24012 c 10,0 15,5 15,15 v 52 c 0,10 -5,15 -15,15 h -136 c -10,0 -15,-5 -15,-15 v -52 c 0,-10 5,-15 15,-15 h 36 v 25 h -30 v 32 h 124 v -32 h -47 v 18 h -21 v -43 z m 15,-105 v 26 l -77,28 c 0,0 -5,0 -15,0 v -25 h -53 v 31 h 145 v 25 h -166 v -66 c 0,-9 5,-14 15,-14 h 61 c 7,0 11,2 13,7 1,2 2,8 2,16 z m 0,-99 v 25 l -32,5 v 31 l 32,5 v 24 0 l -166,-32 v -26 z m -53,33 -75,12 75,12 z m -148,-21 28,31 v 18 h -1 l -28,-19 v -30 z m 57,-93 v 42 h 49 v -36 h 22 v 36 h 73 v 25 h -166 v -67 z m 144,-40 v 25 h -166 v -25 z m -15,-102 c 10,0 15,5 15,15 v 52 c 0,10 -5,15 -15,15 h -136 c -10,0 -15,-5 -15,-15 v -52 c 0,-10 5,-15 15,-15 h 39 v 25 h -33 v 32 h 124 v -32 h -35 v -25 z m 15,-103 v 24 l -32,5 v 31 l 32,5 v 25 0 l -166,-32 v -26 z m -53,33 -75,12 75,12 z m 38,-127 c 10,0 15,5 15,15 v 50 c 0,10 -5,15 -15,15 h -40 v -25 h 34 v -30 h -32 l -48,50 c -3,3 -7,5 -13,5 h -37 c -10,0 -15,-5 -15,-15 v -50 c 0,-10 5,-15 15,-15 h 37 v 25 h -31 v 30 h 30 l 47,-49 c 3,-4 8,-6 13,-6 z"
             style="fill:#000080;fill-rule:nonzero;stroke-width:1.00655" />
        </g>
        <g
           id="g3586"
           style="clip-rule:evenodd;fill-rule:evenodd;stroke-width:1.00655;image-rendering:optimizeQuality;shape-rendering:geometricPrecision;text-rendering:geometricPrecision;fill:#4d4d4d"
           transform="matrix(0.00993495,0,0,0.00993495,-219.43324,-206.36985)">
          <path
             class="fil5 str3"
             d="m 22333,24952 c 10,0 15,6 15,16 v 49 c 0,10 -5,15 -15,15 h -40 v -24 h 34 v -31 h -32 l -48,50 c -3,4 -7,5 -13,5 h -37 c -10,0 -15,-5 -15,-15 v -49 c 0,-10 5,-16 15,-16 h 37 v 25 h -31 v 31 h 30 l 47,-50 c 3,-4 8,-6 13,-6 z m 0,-103 c 10,0 15,5 15,15 v 54 c 0,10 -5,15 -15,15 h -136 c -10,0 -15,-5 -15,-15 v -54 c 0,-10 5,-15 15,-15 z m -6,25 h -124 v 34 h 124 z m 21,-110 v 65 h -166 v -25 h 144 v -40 z m -15,-98 c 10,0 15,5 15,16 v 52 c 0,10 -5,15 -15,15 h -151 v -25 h 145 v -33 h -145 v -25 z m 0,-101 c 10,0 15,5 15,15 v 52 c 0,9 -5,14 -15,14 h -136 c -10,0 -15,-5 -15,-14 v -52 c 0,-10 5,-15 15,-15 h 39 v 24 h -33 v 33 h 124 v -33 h -35 v -24 z m 15,-45 v 25 h -166 v -25 z m -15,-104 c 10,0 15,5 15,15 v 54 c 0,10 -5,15 -15,15 h -136 c -10,0 -15,-5 -15,-15 v -54 c 0,-10 5,-15 15,-15 z m -6,25 h -124 v 34 h 124 z m 21,-129 v 22 l -104,39 c 5,-1 9,-1 12,-1 h 92 v 24 h -166 v -22 l 102,-39 c -5,1 -9,1 -12,1 h -90 v -24 z m 0,-89 v 69 h -166 v -68 h 22 v 43 h 48 v -37 h 22 v 37 h 52 v -44 z m -15,-96 c 10,0 15,5 15,15 v 50 c 0,10 -5,15 -15,15 h -40 v -25 h 34 v -30 h -32 l -48,49 c -3,4 -7,6 -13,6 h -37 c -10,0 -15,-5 -15,-15 v -50 c 0,-10 5,-15 15,-15 h 37 v 25 h -31 v 30 h 30 l 47,-50 c 3,-3 8,-5 13,-5 z"
             id="path3585"
             style="fill:#4d4d4d;fill-rule:nonzero;stroke:#fefefe;stroke-width:17.7555" />
          <path
             id="path3586"
             class="fil3"
             d="m 22333,24952 c 10,0 15,6 15,16 v 49 c 0,10 -5,15 -15,15 h -40 v -24 h 34 v -31 h -32 l -48,50 c -3,4 -7,5 -13,5 h -37 c -10,0 -15,-5 -15,-15 v -49 c 0,-10 5,-16 15,-16 h 37 v 25 h -31 v 31 h 30 l 47,-50 c 3,-4 8,-6 13,-6 z m 0,-103 c 10,0 15,5 15,15 v 54 c 0,10 -5,15 -15,15 h -136 c -10,0 -15,-5 -15,-15 v -54 c 0,-10 5,-15 15,-15 z m -6,25 h -124 v 34 h 124 z m 21,-110 v 65 h -166 v -25 h 144 v -40 z m -15,-98 c 10,0 15,5 15,16 v 52 c 0,10 -5,15 -15,15 h -151 v -25 h 145 v -33 h -145 v -25 z m 0,-101 c 10,0 15,5 15,15 v 52 c 0,9 -5,14 -15,14 h -136 c -10,0 -15,-5 -15,-14 v -52 c 0,-10 5,-15 15,-15 h 39 v 24 h -33 v 33 h 124 v -33 h -35 v -24 z m 15,-45 v 25 h -166 v -25 z m -15,-104 c 10,0 15,5 15,15 v 54 c 0,10 -5,15 -15,15 h -136 c -10,0 -15,-5 -15,-15 v -54 c 0,-10 5,-15 15,-15 z m -6,25 h -124 v 34 h 124 z m 21,-129 v 22 l -104,39 c 5,-1 9,-1 12,-1 h 92 v 24 h -166 v -22 l 102,-39 c -5,1 -9,1 -12,1 h -90 v -24 z m 0,-89 v 69 h -166 v -68 h 22 v 43 h 48 v -37 h 22 v 37 h 52 v -44 z m -15,-96 c 10,0 15,5 15,15 v 50 c 0,10 -5,15 -15,15 h -40 v -25 h 34 v -30 h -32 l -48,49 c -3,4 -7,6 -13,6 h -37 c -10,0 -15,-5 -15,-15 v -50 c 0,-10 5,-15 15,-15 h 37 v 25 h -31 v 30 h 30 l 47,-50 c 3,-3 8,-5 13,-5 z"
             style="fill:#4d4d4d;fill-rule:nonzero;stroke-width:1.00655" />
        </g>
        <text
           x="-25.485231"
           y="2.3870759"
           class="fil0 fnt11"
           id="text3587"
           style="font-weight:normal;font-size:1.75243px;font-family:Arial;clip-rule:evenodd;fill:#000000;fill-rule:evenodd;stroke-width:0.01;image-rendering:optimizeQuality;shape-rendering:geometricPrecision;text-rendering:geometricPrecision"
           transform="rotate(-90)">315 578 7976</text>
        <g
           transform="matrix(0,-0.00993495,0.00993495,0,-184.20659,145.81791)"
           id="g3588"
           style="clip-rule:evenodd;fill-rule:evenodd;stroke-width:1.00655;image-rendering:optimizeQuality;shape-rendering:geometricPrecision;text-rendering:geometricPrecision;fill:#000000">
          <text
             x="9285"
             y="19000"
             class="fil0 fnt12"
             id="text3588"
             style="font-weight:normal;font-size:211.66px;font-family:Arial;fill:#000000;stroke-width:1.00655">comercial@solucionesgraficas.net</text>
        </g>
        <g
           aria-label="DISEÑO WEB"
           transform="rotate(-90,-4.1767347,9.0657106)"
           id="text403-6"
           style="font-size:1.41111px;font-family:Arial;-inkscape-font-specification:Arial;text-align:center;text-anchor:middle;stroke-width:0.2;fill:#000000">
          <path
             d="m -48.600777,15.617892 v -1.010101 h 0.347955 q 0.117822,0 0.179833,0.01447 0.08682,0.01998 0.148139,0.07235 0.07993,0.06752 0.119201,0.172944 0.03996,0.104731 0.03996,0.239779 0,0.115066 -0.02687,0.203949 -0.02687,0.08888 -0.0689,0.14745 -0.04203,0.05788 -0.09233,0.09164 -0.04961,0.03307 -0.120579,0.0503 -0.07028,0.01722 -0.161919,0.01722 z m 0.13367,-0.1192 h 0.215663 q 0.09991,0 0.156407,-0.0186 0.05719,-0.0186 0.09095,-0.05237 0.04754,-0.04754 0.07372,-0.127468 0.02687,-0.08061 0.02687,-0.194993 0,-0.158474 -0.05237,-0.243223 -0.05168,-0.08544 -0.126091,-0.114377 -0.05374,-0.02067 -0.172943,-0.02067 h -0.212218 z"
             id="path617"
             style="fill:#000000" />
          <path
             d="m -47.558981,15.617892 v -1.010101 h 0.13367 v 1.010101 z"
             id="path619"
             style="fill:#000000" />
          <path
             d="m -47.235142,15.293365 0.12609,-0.01103 q 0.009,0.07579 0.04134,0.124713 0.03307,0.04823 0.101974,0.07855 0.0689,0.02963 0.15503,0.02963 0.07648,0 0.135047,-0.02274 0.05857,-0.02274 0.08682,-0.06201 0.02894,-0.03996 0.02894,-0.08682 0,-0.04754 -0.02756,-0.08268 -0.02756,-0.03583 -0.09095,-0.05994 -0.04065,-0.01585 -0.179834,-0.04892 -0.139182,-0.03376 -0.194992,-0.06339 -0.07235,-0.0379 -0.108176,-0.09371 -0.03514,-0.0565 -0.03514,-0.12609 0,-0.07648 0.04341,-0.142627 0.04341,-0.06684 0.12678,-0.101286 0.08337,-0.03445 0.185346,-0.03445 0.11231,0 0.197748,0.03652 0.08613,0.03583 0.132292,0.106108 0.04616,0.07028 0.04961,0.159164 l -0.128158,0.0096 q -0.01034,-0.09577 -0.07028,-0.144694 -0.05926,-0.04892 -0.1757,-0.04892 -0.121267,0 -0.177078,0.04479 -0.05512,0.0441 -0.05512,0.106798 0,0.05443 0.03927,0.08957 0.03858,0.03514 0.201193,0.07235 0.163297,0.03652 0.223931,0.06408 0.08819,0.04065 0.130225,0.103353 0.04203,0.06201 0.04203,0.143316 0,0.08061 -0.04616,0.152273 -0.04617,0.07097 -0.132981,0.110932 -0.08613,0.03927 -0.194303,0.03927 -0.137115,0 -0.230133,-0.03996 -0.09233,-0.03996 -0.145382,-0.11989 -0.05237,-0.08061 -0.05512,-0.1819 z"
             id="path621"
             style="fill:#000000" />
          <path
             d="m -46.245711,15.617892 v -1.010101 h 0.730359 v 0.1192 h -0.59669 v 0.30937 h 0.558794 v 0.118511 h -0.558794 v 0.34382 h 0.620117 v 0.1192 z"
             id="path623"
             style="fill:#000000" />
          <path
             d="m -45.308646,15.617892 v -1.010101 h 0.137115 l 0.530544,0.79306 v -0.79306 h 0.128157 v 1.010101 h -0.137114 l -0.530545,-0.793749 v 0.793749 z m 0.188791,-1.072113 q -6.89e-4,-0.07166 0.03927,-0.114377 0.03927,-0.04272 0.100597,-0.04272 0.04272,0 0.116444,0.03721 0.04065,0.02067 0.06477,0.02067 0.02205,0 0.03376,-0.01171 0.01171,-0.0124 0.01654,-0.04823 h 0.08957 q -0.0021,0.07855 -0.03996,0.117822 -0.03721,0.03927 -0.09508,0.03927 -0.04341,0 -0.114377,-0.03858 -0.04616,-0.0248 -0.06752,-0.0248 -0.02343,0 -0.0379,0.01654 -0.01516,0.01654 -0.01447,0.04892 z"
             id="path625"
             style="fill:#000000" />
          <path
             d="m -44.328862,15.125933 q 0,-0.251492 0.135048,-0.39343 0.135048,-0.142626 0.348643,-0.142626 0.139871,0 0.252181,0.06683 0.11231,0.06684 0.170877,0.186724 0.05926,0.119201 0.05926,0.270785 0,0.153651 -0.06201,0.274918 -0.06201,0.121267 -0.1757,0.183968 -0.113688,0.06201 -0.245291,0.06201 -0.142626,0 -0.254936,-0.0689 -0.11231,-0.0689 -0.170188,-0.188102 -0.05788,-0.1192 -0.05788,-0.252181 z m 0.137804,0.0021 q 0,0.18259 0.09784,0.28801 0.09853,0.104731 0.246668,0.104731 0.150895,0 0.248047,-0.106109 0.09784,-0.106109 0.09784,-0.301101 0,-0.123335 -0.04203,-0.214974 -0.04134,-0.09233 -0.121957,-0.142627 -0.07993,-0.05099 -0.179834,-0.05099 -0.141937,0 -0.244601,0.09784 -0.101975,0.09715 -0.101975,0.325217 z"
             id="path627"
             style="fill:#000000" />
          <path
             d="m -42.622163,15.617892 -0.268028,-1.010101 h 0.137115 l 0.153651,0.662147 q 0.0248,0.104042 0.04272,0.206705 0.03858,-0.161919 0.04547,-0.186724 l 0.192236,-0.682128 h 0.161231 l 0.144694,0.511252 q 0.05443,0.190169 0.07855,0.3576 0.01929,-0.09577 0.0503,-0.219796 l 0.158474,-0.649056 h 0.134359 l -0.276986,1.010101 h -0.128846 l -0.212907,-0.769633 q -0.02687,-0.09646 -0.03169,-0.118512 -0.01585,0.06959 -0.02963,0.118512 l -0.214285,0.769633 z"
             id="path629"
             style="fill:#000000" />
          <path
             d="m -41.463923,15.617892 v -1.010101 h 0.73036 v 0.1192 h -0.59669 v 0.30937 h 0.558794 v 0.118511 h -0.558794 v 0.34382 h 0.620117 v 0.1192 z"
             id="path631"
             style="fill:#000000" />
          <path
             d="m -40.530992,15.617892 v -1.010101 h 0.378961 q 0.115755,0 0.185346,0.03101 0.07028,0.03032 0.109554,0.0944 0.03996,0.06339 0.03996,0.132981 0,0.06477 -0.03514,0.121956 -0.03514,0.05719 -0.106109,0.09233 0.09164,0.02687 0.14056,0.09164 0.04961,0.06477 0.04961,0.152962 0,0.07097 -0.03032,0.132292 -0.02963,0.06063 -0.07372,0.09371 -0.0441,0.03307 -0.110932,0.0503 -0.06615,0.01654 -0.162608,0.01654 z m 0.13367,-0.585666 h 0.218419 q 0.08888,0 0.127468,-0.01171 0.05099,-0.01516 0.07648,-0.0503 0.02618,-0.03514 0.02618,-0.08819 0,-0.0503 -0.02412,-0.08819 -0.02412,-0.03858 -0.0689,-0.05236 -0.04479,-0.01447 -0.153651,-0.01447 h -0.201883 z m 0,0.466466 h 0.251492 q 0.06477,0 0.09095,-0.0048 0.04616,-0.0083 0.07717,-0.02756 0.03101,-0.01929 0.05099,-0.05581 0.01998,-0.03721 0.01998,-0.08544 0,-0.0565 -0.02894,-0.09784 -0.02894,-0.04203 -0.08062,-0.05857 -0.05099,-0.01722 -0.14745,-0.01722 h -0.233577 z"
             id="path633"
             style="fill:#000000" />
        </g>
      </g>
    </g>
  </g>
</svg>
