<?xml version="1.0" encoding="UTF-8" standalone="no"?>
<!-- Created with Inkscape (http://www.inkscape.org/) -->

<svg
   version="1.1"
   id="svg2"
   width="27"
   height="27"
   viewBox="0 0 27 27"
   sodipodi:docname="sinfirmar.svg"
   inkscape:version="1.2.2 (b0a8486541, 2022-12-01)"
   inkscape:export-filename="firmaW.png"
   inkscape:export-xdpi="96"
   inkscape:export-ydpi="96"
   xmlns:inkscape="http://www.inkscape.org/namespaces/inkscape"
   xmlns:sodipodi="http://sodipodi.sourceforge.net/DTD/sodipodi-0.dtd"
   xmlns="http://www.w3.org/2000/svg"
   xmlns:svg="http://www.w3.org/2000/svg">
  <defs
     id="defs6" />
  <sodipodi:namedview
     id="namedview4"
     pagecolor="#ffffff"
     bordercolor="#000000"
     borderopacity="0.25"
     inkscape:showpageshadow="2"
     inkscape:pageopacity="0.0"
     inkscape:pagecheckerboard="0"
     inkscape:deskcolor="#d1d1d1"
     showgrid="false"
     inkscape:zoom="31.592593"
     inkscape:cx="7.8182883"
     inkscape:cy="13.531653"
     inkscape:window-width="1920"
     inkscape:window-height="1048"
     inkscape:window-x="1366"
     inkscape:window-y="0"
     inkscape:window-maximized="1"
     inkscape:current-layer="g8" />
  <g
     inkscape:groupmode="layer"
     inkscape:label="Image"
     id="g8">
    <path
       style="fill:#0000ff;fill-opacity:1;stroke-width:0.999992"
       d="M 16.11631,26.870613 C 15.903824,26.665062 15.893408,26.473768 16.06683,25.96219 l 0.153152,-0.451751 -0.09359,-0.296131 C 15.968968,24.71622 15.90337,23.62303 15.968989,22.591216 c 0.06172,-0.970517 0.167578,-1.811177 0.295013,-2.342794 0.08191,-0.341629 3.415356,-9.869576 3.474635,-9.931453 0.03375,-0.03522 3.980968,1.450255 4.06674,1.530467 0.05785,0.05408 -3.278142,9.562411 -3.560411,10.148055 -0.687185,1.425739 -1.921851,3.077541 -2.746447,3.674348 -0.253138,0.18321 -0.293693,0.242241 -0.422416,0.614849 C 16.890365,26.822331 16.737243,27 16.459624,27 16.312889,27 16.209943,26.96119 16.116297,26.870613 Z m -2.49534,-0.913866 c -0.249026,-0.06274 -0.381539,-0.154027 -0.839383,-0.578304 -0.23532,-0.218063 -0.499133,-0.436177 -0.586256,-0.484694 -0.09082,-0.05057 -0.41145,-0.113017 -0.751546,-0.14635 -0.79427,-0.07784 -1.261217,-0.310926 -1.5478851,-0.772637 l -0.08179,-0.131704 -0.2337,0.153995 c -0.542152,0.357243 -0.778987,0.433978 -1.345197,0.435848 -0.485321,0.0017 -0.54821,-0.01069 -0.777809,-0.15269 -0.504781,-0.312074 -0.892843,-0.921863 -0.992208,-1.559136 -0.04551,-0.291871 0.01658,-1.290169 0.08771,-1.41031 0.05275,-0.0891 -0.04749,-0.02965 -0.710854,0.4215 -1.269102,0.863121 -1.831438,1.089017 -2.728578,1.096082 -0.330091,0.0026 -0.681868,-0.02598 -0.814909,-0.06621 C 1.1758089,22.422606 0.45512694,21.573209 0.11902194,20.193306 0.00931894,19.742913 -0.00161706,19.575567 1.6494133e-4,18.374512 0.00236494,16.939214 0.02489494,16.737642 0.37375094,15.043239 1.0895619,11.566466 2.0987549,9.5083165 3.6943009,8.2712962 4.1523369,7.9161833 4.9031219,7.5245573 5.3575449,7.403712 c 0.473488,-0.1259156 1.375377,-0.0846 1.833412,0.084004 0.820677,0.3020749 1.612565,1.0962385 2.107147,2.1131935 0.382702,0.7869205 0.636044,1.7348885 0.68798,2.5743415 0.02871,0.46436 0.01975,0.55078 -0.07805,0.750895 -0.21495,0.439788 -0.641693,0.671224 -1.113257,0.603758 -0.292836,-0.0419 -0.505131,-0.170133 -0.701472,-0.423715 -0.125959,-0.162684 -0.171723,-0.309299 -0.258048,-0.826724 -0.226463,-1.357407 -0.674176,-2.267458 -1.274377,-2.5903815 -0.480675,-0.258616 -1.13458,-0.02061 -1.8598,0.6769105 -1.071987,1.03105 -1.740374,2.726731 -2.385492,6.051941 -0.128768,0.663722 -0.144794,0.86901 -0.148441,1.901465 -0.0034,0.95282 0.01198,1.209401 0.08682,1.451515 0.192755,0.623598 0.398421,0.812969 0.869879,0.800965 0.362316,-0.0092 0.69493,-0.178293 1.732501,-0.880616 1.302866,-0.881899 1.918218,-1.155994 2.730439,-1.21621 0.365533,-0.0271 0.508992,-0.01476 0.696262,0.0599 0.295572,0.117829 0.587561,0.449642 0.668443,0.759621 0.09045,0.346626 0.02658,1.170057 -0.151518,1.953819 l -0.152091,0.669277 0.348086,-0.181421 c 0.457712,-0.238558 0.69857,-0.303065 1.1137051,-0.29827 0.638457,0.0074 1.214419,0.332684 1.450685,0.819359 l 0.135136,0.278361 h 0.304826 c 0.393726,0 0.846803,0.124929 1.233677,0.340166 0.34376,0.191248 1.324555,1.05407 1.510311,1.328643 0.442041,0.6534 0.114456,1.578367 -0.616985,1.742107 -0.300309,0.06723 -0.281245,0.06684 -0.506355,0.01012 z M 22.359605,9.4173985 c -1.274136,-0.491826 -1.977685,-0.790006 -1.973406,-0.836384 0.0117,-0.1266954 2.43468,-6.9648732 2.555419,-7.2119125 0.149708,-0.306307 0.574542,-0.7740116 0.902764,-0.9938587 0.563752,-0.377609 1.270023,-0.4795522 1.823857,-0.2632561 0.801747,0.3131149 1.372726,1.3983487 1.329462,2.5268443 -0.01747,0.4555634 -0.05311,0.569162 -1.258806,4.0093962 -0.900679,2.5699618 -1.262546,3.5395783 -1.320036,3.5370173 -0.04357,-0.0019 -0.970227,-0.3474745 -2.059254,-0.7678465 z m -4.215229,0.488941 c -0.302075,-0.156073 -0.495849,-0.465006 -0.52424,-0.835789 -0.02019,-0.263779 0.07942,-0.5712224 1.280091,-3.9511767 0.716096,-2.0158287 1.345009,-3.7670399 1.397583,-3.8915809 0.09853,-0.2333773 0.354114,-0.4738839 0.579981,-0.5457436 0.233534,-0.074299 0.638405,-0.033209 0.840402,0.085295 0.343556,0.2015483 0.567856,0.6818763 0.499347,1.0693138 -0.05736,0.3243151 -2.622904,7.5009754 -2.759274,7.7185494 -0.281571,0.4492405 -0.83681,0.5976285 -1.31389,0.351132 z"
       id="path293" />
  </g>
</svg>
