<?xml version="1.0" encoding="UTF-8" standalone="no"?>
<!-- Creator: CorelDRAW X7 -->

<svg
   xml:space="preserve"
   width="8.5in"
   height="11in"
   version="1.1"
   style="clip-rule:evenodd;fill-rule:evenodd;image-rendering:optimizeQuality;shape-rendering:geometricPrecision;text-rendering:geometricPrecision"
   viewBox="0 0 21590 27940"
   id="svg3991"
   sodipodi:docname="02_retiro.svg"
   inkscape:version="1.3.2 (1:1.3.2+202311252150+091e20ef0f)"
   xmlns:inkscape="http://www.inkscape.org/namespaces/inkscape"
   xmlns:sodipodi="http://sodipodi.sourceforge.net/DTD/sodipodi-0.dtd"
   xmlns="http://www.w3.org/2000/svg"
   xmlns:svg="http://www.w3.org/2000/svg"><sodipodi:namedview
   id="namedview3993"
   pagecolor="#ffffff"
   bordercolor="#666666"
   borderopacity="1.0"
   inkscape:pageshadow="2"
   inkscape:pageopacity="0.0"
   inkscape:pagecheckerboard="0"
   inkscape:document-units="mm"
   showgrid="false"
   inkscape:zoom="1.4987745"
   inkscape:cx="408"
   inkscape:cy="79.731807"
   inkscape:window-width="1366"
   inkscape:window-height="742"
   inkscape:window-x="0"
   inkscape:window-y="0"
   inkscape:window-maximized="1"
   inkscape:current-layer="Capa_x0020_1"
   units="in"
   inkscape:showpageshadow="2"
   inkscape:deskcolor="#d1d1d1" />
 <defs
   id="defs390">
  <font
   id="FontID1"
   horiz-adv-x="546"
   font-variant="normal"
   style="fill-rule:nonzero"
   font-style="normal,italic"
   font-weight="400"
   horiz-origin-x="0"
   horiz-origin-y="0"
   vert-origin-x="512"
   vert-origin-y="768"
   vert-adv-y="1024">
	<font-face
   font-family="Arial Narrow"
   id="font-face2">
	</font-face>
   <missing-glyph
   id="missing-glyph6"><path
     d="M0 0z"
     id="path4" /></missing-glyph>
   <glyph
   unicode="f"
   horiz-adv-x="227"
   id="glyph10"><path
     d="M37.9849 0l77.5087 451 -65.4815 0 11.8247 67.9922 65.3195 0 12.6751 73.3377c8.66607,50.984 19.5189,84.6764 32.1536,100.996 18.3445,23.1635 46.3675,34.6643 84.1905,34.6643 17.9801,0 44.6667,-4.657 79.817,-14.1735l-12.9991 -77.4682c-24.6619,7.81566 -45.3147,11.6628 -61.5129,11.6628 -14.295,0 -25.1478,-4.33304 -32.4775,-13.1611 -7.32972,-8.66607 -13.8495,-29.0354 -19.3164,-60.865l-9.51648 -54.9931 80.8294 0 -11.6628 -67.9922 -80.8294 0 -77.5087 -451 -73.0137 0z"
     id="path8" /></glyph>
   <glyph
   unicode="t"
   horiz-adv-x="227"
   id="glyph14"><path
     d="M188.993 72.0013l-12.3107 -73.9856c-16.8462,-4.6975 -33.166,-7.00575 -48.9998,-7.00575 -26.3627,0 -47.1775,7.16773 -62.5253,21.5032 -15.5098,14.3355 -23.1635,33.6519 -23.1635,57.8278 0,11.3388 3.68511,37.823 10.6909,79.331l51.632 301.328 -56.9774 0 11.6628 67.9922 57.0179 0 21.6652 125.01 83.4616 60.9865 -31.9916 -185.997 70.6649 0 -11.6628 -67.9922 -70.8269 0 -49.1617 -286.831c-6.15534,-37.013 -9.15202,-58.8402 -9.15202,-65.3195 0,-11.3388 2.47024,-19.6809 7.4917,-25.0263 5.14295,-5.14295 12.6751,-7.81566 22.6776,-7.81566 14.6594,0 27.9825,1.98429 39.8072,5.99336z"
     id="path12" /></glyph>
   <glyph
   unicode="A"
   horiz-adv-x="546"
   id="glyph18"><path
     d="M-15.3479 0l332.51 716.004 92.0062 0 96.0152 -716.004 -76.1723 0 -27.6585 206.001 -237.872 0 -93.6665 -206.001 -85.1624 0zm213.331 279.987l193.367 0 -22.3536 179.679c-8.66607,70.9889 -14.1735,130.315 -16.4817,178.181 -12.9991,-41.0221 -32.356,-89.6979 -58.0303,-146.027l-96.5012 -211.833z"
     id="path16" /></glyph>
   <glyph
   unicode="O"
   horiz-adv-x="638"
   id="glyph22"><path
     d="M74.998 299.83c0,131.165 32.68,237.669 98.1615,319.349 58.3543,72.4872 129.343,108.812 213.169,108.812 70.341,0 129.181,-28.3065 176.521,-85.0004 47.5014,-56.4915 71.1509,-135.337 71.1509,-236.171 0,-80.9913 -15.5098,-154.491 -46.489,-220.337 -30.8577,-65.9674 -70.017,-115.494 -117.194,-148.66 -47.2989,-33.166 -96.9871,-49.8097 -148.984,-49.8097 -45.3147,0 -86.1748,11.9867 -122.499,36.1626 -36.3246,23.9734 -66.0079,60.5005 -89.1715,109.338 -23.1635,48.8378 -34.6643,104.317 -34.6643,166.316zm76.9823 -4.657c0,-69.3286 17.3726,-124.686 51.8345,-166.154 34.5023,-41.3461 75.5244,-62.0394 122.864,-62.0394 35.8387,0 71.1509,13.2016 105.815,39.5238 34.6643,26.4842 64.0236,67.9922 87.8351,124.484 23.8519,56.532 35.6767,118.166 35.6767,184.863 0,72.3253 -16.8462,129.303 -50.6601,170.811 -33.6924,41.5081 -74.512,62.3228 -122.499,62.3228 -55.3576,0 -105.329,-27.1321 -149.672,-81.6393 -54.1832,-66.6964 -81.1938,-157.528 -81.1938,-272.171z"
     id="path20" /></glyph>
   <glyph
   unicode="F"
   horiz-adv-x="501"
   id="glyph26"><path
     d="M40.0097 0l122.985 716.004 377.987 0 -13.4851 -80.9913 -299.344 0 -39.3213 -229.003 305.175 0 -13.6875 -80.9913 -305.337 0 -55.803 -325.018 -79.169 0z"
     id="path24" /></glyph>
   <glyph
   unicode="e"
   horiz-adv-x="455"
   id="glyph30"><path
     d="M340.002 177.007l70.9889 -8.99004c-11.8247,-50.3361 -38.9973,-94.3549 -81.8417,-131.692 -35.6362,-31.5056 -75.3219,-47.3394 -119.138,-47.3394 -31.0197,0 -59.1642,8.34211 -84.6764,25.1883 -25.5123,16.6437 -45.8411,41.67 -60.8245,74.998 -15.0239,33.3279 -22.5156,73.0137 -22.5156,119.179 0,60.8245 11.5008,117.478 34.5023,170.163 23.0015,52.4824 50.984,90.9938 84.3525,115.17 33.166,24.1354 69.1666,36.3246 108.002,36.3246 49.1617,0 89.3334,-18.6685 120.475,-56.0055 31.1817,-37.337 46.6915,-90.0219 46.6915,-158.176 0,-25.3098 -1.8628,-51.146 -5.34543,-77.8327l-313.153 0c-1.01239,-10.3264 -1.49834,-19.6404 -1.49834,-27.6585 0,-48.6758 9.314,-85.4864 27.8205,-110.675 18.6685,-25.1478 40.9816,-37.661 66.9798,-37.661 24.8643,0 49.1617,9.84045 73.1757,29.6833 24.0139,19.6404 42.6824,48.1493 56.0055,85.3244zm-210.82 128.979l238.803 0 0 18.0206c0,46.0031 -9.15202,80.5054 -27.3346,103.507 -18.304,23.0015 -41.4676,34.5023 -69.8145,34.5023 -30.6552,0 -58.6782,-12.9991 -84.3525,-38.8353 -25.4718,-25.9982 -44.6667,-64.9955 -57.3014,-117.194z"
     id="path28" /></glyph>
   <glyph
   unicode="C"
   horiz-adv-x="591"
   id="glyph34"><path
     d="M491.982 252.005l79.007 -12.9991c-24.6619,-83.988 -60.8245,-146.837 -108.488,-188.507 -47.6634,-41.67 -99.8218,-62.4848 -156.354,-62.4848 -69.3286,0 -125.334,25.8362 -167.976,77.6707 -42.8444,51.632 -64.1856,128.169 -64.1856,229.327 0,118.166 26.8486,217.988 80.5054,299.668 58.1923,88.807 133.514,133.312 225.844,133.312 59.3262,0 108.812,-19.6404 148.66,-59.0022 39.8477,-39.4833 62.8493,-94.6384 69.0046,-165.992l-73.0137 -7.00575c-15.3074,102.009 -62.4848,152.993 -141.492,152.993 -69.1666,0 -124.808,-35.1502 -167.49,-105.653 -42.6824,-70.503 -64.0236,-154.005 -64.0236,-250.344 0,-74.836 15.0239,-131.165 45.1932,-169.15 30.1693,-37.823 68.1542,-56.8559 114.157,-56.8559 39.4833,0 74.1881,14.3355 103.993,43.0064 36.5271,35.1907 62.1608,82.5302 76.6583,142.018z"
     id="path32" /></glyph>
   <glyph
   unicode="s"
   horiz-adv-x="410"
   id="glyph38"><path
     d="M31.0197 178.019l73.9856 4.98097c-0.323965,-42.318 8.82806,-73.8236 27.4966,-94.6789 18.6685,-20.8148 44.1808,-31.3032 76.3343,-31.3032 29.3189,0 52.4824,7.32972 69.4906,22.1511 17.1702,14.8214 25.6743,33.8139 25.6743,56.8154 0,16.6842 -5.18345,31.6676 -15.3479,45.0312 -10.4884,13.3231 -33.9759,29.4808 -70.6649,48.6353 -42.156,22.1916 -69.9765,39.1998 -83.5021,51.0245 -13.3231,11.8247 -23.8115,26.3222 -31.3032,43.4923 -7.53219,17.0082 -11.1768,36.0006 -11.1768,57.1799 0,43.1684 13.809,78.8046 41.67,106.828 27.8205,27.8205 64.5096,41.832 109.824,41.832 50.1741,0 89.8194,-14.3355 118.814,-43.1684 29.1974,-28.8329 44.3428,-69.1666 45.6791,-120.839l-70.9889 -5.99336c-1.01239,32.68 -10.1644,57.8278 -27.8205,75.4839 -17.5346,17.6561 -41.1841,26.5247 -70.8674,26.5247 -23.1635,0 -41.994,-6.5198 -56.4915,-19.6809 -14.4974,-13.1611 -21.8272,-28.5089 -21.8272,-45.6791 0,-14.9834 4.33304,-27.8205 12.9991,-38.4709 8.66607,-11.0148 30.8172,-25.8362 66.4939,-44.3428 54.8311,-28.9949 89.6574,-51.9964 104.519,-69.3286 22.6371,-26.8486 33.9759,-59.8526 33.9759,-98.526 0,-42.8039 -15.1454,-79.817 -45.6386,-110.634 -30.5337,-30.8577 -72.8517,-46.3675 -126.832,-46.3675 -54.5072,0 -97.1896,15.6718 -128.007,46.8535 -31.0197,31.3436 -46.489,75.4839 -46.489,132.34l0 9.84045z"
     id="path36" /></glyph>
   <glyph
   unicode="/"
   horiz-adv-x="227"
   id="glyph42"><path
     d="M-41.994 -11.9867l315.502 739.977 62.8088 0 -315.299 -739.977 -63.0113 0z"
     id="path40" /></glyph>
   <glyph
   unicode=" "
   horiz-adv-x="227"
   id="glyph44" />
   <glyph
   unicode="d"
   horiz-adv-x="455"
   id="glyph48"><path
     d="M313.315 76.0104c-41.1436,-58.0303 -84.474,-87.0252 -130.315,-87.0252 -39.1593,0 -72.4872,17.6966 -99.8218,53.1708 -27.4966,35.3527 -41.1841,88.5235 -41.1841,159.35 0,63.3352 11.0148,121.487 33.004,174.172 22.1511,52.8063 49.3237,91.8037 81.5178,116.83 32.3155,24.9858 64.3071,37.499 96.2987,37.499 53.0088,0 93.0185,-31.1817 120.029,-93.5045l50.1741 279.501 72.9732 0 -128.007 -716.004 -67.9922 0 13.3231 76.0104zm-198.834 141.654l-0.485948 -21.0173c0,-42.8039 10.0024,-77.8327 30.0073,-104.965 15.5098,-21.1792 35.8387,-31.6676 61.1485,-31.6676 33.004,0 63.0113,20.8148 90.3458,62.3228 35.8387,55.3171 53.6568,123.512 53.6568,204.341 0,41.5081 -9.15202,73.4996 -27.4966,96.3392 -18.5065,22.6371 -40.3337,33.9759 -65.6435,33.9759 -24.6619,0 -47.8659,-10.8123 -69.5311,-32.68 -21.6652,-21.6652 -39.1593,-54.3047 -52.3204,-97.6351 -13.1611,-43.4923 -19.6809,-79.8575 -19.6809,-109.014z"
     id="path46" /></glyph>
   <glyph
   unicode="u"
   horiz-adv-x="455"
   id="glyph52"><path
     d="M316.15 95.1648c-50.8221,-70.8269 -102.98,-106.18 -156.151,-106.18 -30.8172,0 -56.6534,11.0148 -77.5087,33.004 -20.9768,22.0296 -31.5056,50.4981 -31.5056,85.1624 0,22.0296 4.6975,59.3666 13.8495,112.173l51.3485 299.668 72.9732 0 -56.8154 -331.983c-4.85948,-27.6585 -7.32972,-48.9998 -7.32972,-63.6592 0,-20.1668 4.98097,-35.3527 15.1454,-45.8411 10.0024,-10.3264 24.1759,-15.5098 42.3585,-15.5098 25.6338,0 51.146,10.3264 76.6583,31.0197 25.5123,20.4908 44.1808,46.327 56.0055,77.3062 11.8247,31.1817 22.4751,72.8517 31.8296,125.01l41.1436 223.658 73.0137 0 -94.1524 -518.992 -67.9922 0 17.1297 95.1648z"
     id="path50" /></glyph>
   <glyph
   unicode="a"
   horiz-adv-x="455"
   id="glyph56"><path
     d="M312.991 64.5096c-26.4842,-27.861 -51.5105,-47.3394 -74.836,-58.5162 -23.4875,-11.3388 -47.137,-17.0082 -71.1509,-17.0082 -37.661,0 -68.8426,13.5256 -93.6665,40.3337 -24.8238,27.0106 -37.337,63.6997 -37.337,110.189 0,33.166 7.32972,61.9989 21.9891,86.6607 14.4974,24.6619 35.0288,43.4923 61.5129,56.6534 26.3222,13.1611 64.1451,20.8553 113.347,23.1635 41.4676,2.34875 69.9765,5.02146 85.3244,7.69418 15.5098,2.8347 28.6709,6.80327 39.6453,12.3107 7.00575,24.4999 10.5289,44.3428 10.5289,59.8526 0,21.5032 -8.18012,38.6734 -24.4999,51.6725 -16.3602,12.9991 -39.8477,19.4784 -70.8674,19.4784 -62.1608,0 -102.495,-30.9792 -121.001,-92.9781l-73.9856 6.96525c31.6676,106.018 98.1615,159.026 199.522,159.026 49.9717,0 89.4954,-12.9991 118.814,-39.1593 29.3189,-26.2007 44.0188,-59.1642 44.0188,-98.8499 0,-27.1726 -3.84709,-59.1642 -11.7032,-95.6508l-28.3065 -128.331c-8.99004,-40.8601 -13.5256,-73.8641 -13.5256,-99.0119 0,-17.4941 2.8347,-40.4957 8.34211,-69.0046l-74.4715 0c-3.68511,16.3198 -6.19584,37.823 -7.69418,64.5096zm31.9916 198.51c-18.1421,-8.66607 -49.1617,-15.3479 -92.6541,-20.0049 -44.3428,-4.49502 -74.998,-10.3669 -91.4797,-17.5346 -16.6842,-7.12724 -29.6833,-17.9801 -38.8353,-32.6395 -9.3545,-14.6594 -14.0115,-31.5056 -14.0115,-50.6601 0,-26.3627 7.32972,-47.0155 22.1511,-62.3633 14.8619,-15.1454 34.5023,-22.7991 59.1642,-22.7991 23.528,0 46.0031,7.16773 67.6683,21.4627 21.6652,14.3355 39.3618,35.0288 53.0088,62.0394 13.6875,26.9701 25.3503,67.8302 34.9883,122.499z"
     id="path54" /></glyph>
   <glyph
   unicode="r"
   horiz-adv-x="272"
   id="glyph60"><path
     d="M27.3346 0l89.1715 518.992 64.8336 0 -18.3445 -106.139c42.3585,78.1566 85.0004,117.154 127.683,117.154 14.4974,0 32.3155,-6.35782 53.3328,-18.9925l-29.8453 -81.6798c-12.5132,11.1768 -25.8362,16.6842 -39.6453,16.6842 -26.5247,0 -53.0088,-17.5346 -79.3715,-52.5229 -26.3222,-34.9883 -47.137,-96.8251 -62.3228,-185.349l-36.4866 -208.148 -69.0046 0z"
     id="path58" /></glyph>
   <glyph
   unicode="o"
   horiz-adv-x="455"
   id="glyph64"><path
     d="M40.0097 197.173c0,93.14 20.9768,171.985 62.9708,236.333 42.0345,64.3071 98.364,96.5012 169.029,96.5012 49.4857,0 90.3053,-18.9925 122.661,-56.8559 32.1536,-37.823 48.3113,-91.6417 48.3113,-161.497 0,-63.9832 -10.9743,-121.163 -32.9635,-171.499 -22.0296,-50.4981 -50.5386,-88.1591 -85.5268,-113.307 -34.9883,-25.1883 -71.6773,-37.8634 -110.148,-37.8634 -50.4981,0 -92.1681,18.6685 -125.01,55.8435 -32.842,37.175 -49.3237,87.9971 -49.3237,152.345zm73.9856 8.66607c0,-49.1617 9.67846,-86.1748 29.1569,-111.323 19.3569,-25.0263 43.6948,-37.499 72.8517,-37.499 23.0015,0 46.0031,9.314 69.0046,27.9825 23.0015,18.8305 43.1684,49.6477 60.3385,93.0185 17.1702,43.3304 25.6338,87.6326 25.6338,133.15 0,49.4857 -9.63797,86.9847 -29.1569,112.497 -19.3164,25.5123 -43.3304,38.3494 -71.8393,38.3494 -24.9858,0 -49.1617,-9.3545 -72.6492,-27.861 -23.4875,-18.5065 -43.3304,-49.1617 -59.3262,-92.0062 -15.9958,-42.6419 -24.0139,-88.1591 -24.0139,-136.308z"
     id="path62" /></glyph>
   <glyph
   unicode="l"
   horiz-adv-x="182"
   id="glyph68"><path
     d="M21.0173 0l122.985 716.004 73.0137 0 -123.026 -716.004 -72.9732 0z"
     id="path66" /></glyph>
   <glyph
   unicode="i"
   horiz-adv-x="182"
   id="glyph72"><path
     d="M129.829 616.02l17.1702 99.9838 73.0137 0 -17.1702 -99.9838 -73.0137 0zm-105.815 -616.02l89.1715 518.992 72.9732 0 -89.1715 -518.992 -72.9732 0z"
     id="path70" /></glyph>
  </font>
  <font
   id="FontID0"
   horiz-adv-x="667"
   font-variant="normal"
   style="fill-rule:nonzero"
   font-style="normal"
   font-weight="400,700"
   horiz-origin-x="0"
   horiz-origin-y="0"
   vert-origin-x="512"
   vert-origin-y="768"
   vert-adv-y="1024">
	<font-face
   font-family="Arial"
   id="font-face75">
	</font-face>
   <missing-glyph
   id="missing-glyph79"><path
     d="M0 0z"
     id="path77" /></missing-glyph>
   <glyph
   unicode="–"
   horiz-adv-x="556"
   id="glyph83"><path
     d="M-1.98429 223.982l0 71.0294 554.993 0 0 -71.0294 -554.993 0z"
     id="path81" /></glyph>
   <glyph
   unicode="3"
   horiz-adv-x="556"
   id="glyph87"><path
     d="M42.0135 189.984l87.979 12.0178c10.1714,-50.0146 27.1776,-86.003 51.3427,-107.998 24.1651,-21.9948 53.8369,-33.0083 88.9832,-33.0083 41.6896,0 76.8359,14.35 105.18,43.0177 28.3438,28.6677 42.4994,64.1379 42.4994,106.475 0,40.3291 -13.1515,73.6938 -39.6489,99.9968 -26.3354,26.1734 -59.862,39.3573 -100.677,39.3573 -16.6823,0 -37.349,-3.33646 -62.1619,-9.84743l9.81504 76.9978c5.83071,-0.647857 10.6896,-1.00418 14.1881,-1.00418 37.6405,0 71.3291,9.84743 101.487,29.3479 29.9958,19.5005 44.9937,49.4963 44.9937,89.9874 0,32.1661 -10.9812,58.8578 -32.814,80.0104 -21.8328,21.1525 -50.0146,31.6802 -84.513,31.6802 -34.3364,0 -62.8421,-10.8516 -85.6791,-32.5224 -22.8046,-21.6708 -37.4785,-54.1609 -43.9895,-97.5025l-88.0114 16.0021c10.8516,59.0198 35.1786,104.856 73.3374,137.346 37.9968,32.49 85.5172,48.6541 142.172,48.6541 39.001,0 74.9895,-8.32497 107.836,-25.1693 33.0083,-16.6499 58.1776,-39.4869 75.5078,-68.3165 17.4921,-28.9916 26.1734,-59.6676 26.1734,-92.1577 0,-30.838 -8.35736,-58.8578 -24.8453,-84.189 -16.6823,-25.3312 -41.3333,-45.4796 -73.8233,-60.4775 42.3375,-9.68547 75.1514,-30.0282 98.6687,-60.8338 23.3229,-30.676 34.9843,-69.3531 34.9843,-115.513 0,-62.4858 -22.837,-115.675 -68.3165,-159.179 -45.6739,-43.5036 -103.333,-65.142 -173.01,-65.142 -62.8421,0 -114.995,18.8203 -156.49,56.3312 -41.6896,37.4785 -65.3364,86.003 -71.1671,145.638z"
     id="path85" /></glyph>
   <glyph
   unicode="f"
   horiz-adv-x="277"
   id="glyph91"><path
     d="M87.0072 0l0 451.006 -78.002 0 0 67.9926 78.002 0 0 55.0031c0,34.8223 2.98014,60.6718 9.16718,77.4837 8.48693,22.675 23.1609,41.1713 44.5078,55.3594 21.1525,14.1557 50.9864,21.1525 89.3071,21.1525 24.8453,0 52.1849,-3.01254 82.1807,-8.84325l-13.1839 -76.9978c-18.3344,3.1745 -35.4702,4.85893 -51.8286,4.85893 -26.6593,0 -45.4796,-5.66875 -56.6551,-17.0063 -11.0136,-11.3375 -16.488,-32.5224 -16.488,-63.5224l0 -47.4879 101.001 0 0 -67.9926 -100.029 0 0 -451.006 -87.979 0z"
     id="path89" /></glyph>
   <glyph
   unicode="U"
   horiz-adv-x="722"
   id="glyph95"><path
     d="M545.993 716l94.9987 0 0 -413.491c0,-72.0202 -8.16148,-129.175 -24.3144,-171.513 -16.3473,-42.1677 -45.6897,-76.6596 -88.0031,-103.16 -42.5077,-26.5005 -98.0106,-39.8358 -167.019,-39.8358 -66.8221,0 -121.645,11.4892 -164.153,34.662 -42.6777,23.1728 -72.9918,56.4988 -91.1608,100.342 -18.169,43.8194 -27.3507,103.67 -27.3507,179.504l0 413.491 94.9987 0 0 -413.345c0,-62.1584 5.85392,-108.164 17.3431,-137.482 11.4892,-29.5125 31.1642,-52.3452 59.3408,-68.1824 27.9822,-15.9829 62.3285,-23.9986 102.82,-23.9986 69.3483,0 118.827,15.8372 148.34,47.3414 29.4882,31.6743 44.1594,92.3268 44.1594,182.322l0 413.345z"
     id="path93" /></glyph>
   <glyph
   unicode="D"
   horiz-adv-x="722"
   id="glyph99"><path
     d="M76.9997 0l0 716 246.666 0c55.673,0 98.1564,-3.32775 127.499,-10.1776 41.0017,-9.49744 76.0038,-26.6463 105.006,-51.325 37.8197,-31.9901 65.9963,-72.676 84.6511,-122.325 18.8491,-49.6733 28.1765,-106.512 28.1765,-170.347 0,-54.337 -6.33972,-102.504 -18.9949,-144.502 -12.6794,-41.9976 -29.0024,-76.8297 -48.8474,-104.326 -19.9908,-27.4964 -41.6576,-49.1632 -65.3161,-64.8303 -23.5128,-15.8372 -52.0051,-27.8365 -85.3312,-35.998 -33.5204,-8.16148 -71.8502,-12.1694 -115.184,-12.1694l-258.325 0zm94.9987 83.9952l152.663 0c47.1714,0 84.1653,4.34793 111.006,13.1652 26.8406,8.8416 48.1673,21.181 64.1745,37.1639 22.3226,22.5169 39.8358,52.831 52.3209,90.8451 12.5094,37.9897 18.8248,83.9952 18.8248,138.162 0,75.0079 -12.3151,132.673 -36.8238,172.994 -24.5087,40.3459 -54.337,67.3322 -89.5091,81.0076 -25.3103,9.8375 -66.1663,14.6712 -122.495,14.6712l-150.162 0 0 -548.009z"
     id="path97" /></glyph>
   <glyph
   unicode="0"
   horiz-adv-x="556"
   id="glyph103"><path
     d="M42.0135 353.341c0,84.4806 8.64889,152.83 25.9791,204.496 17.4921,51.8286 43.3416,91.6718 77.6781,119.497 34.1745,27.8255 77.3218,41.6572 129.345,41.6572 38.3208,0 71.9769,-7.64472 101.163,-23.1609 28.9916,-15.4838 52.9947,-37.8349 71.653,-66.9884 18.6583,-29.024 33.3323,-64.4942 43.9895,-106.346 10.8516,-41.8192 16.164,-98.3447 16.164,-169.156 0,-83.9947 -8.64889,-152.02 -25.8171,-203.686 -17.1682,-51.8286 -42.9853,-91.6394 -77.3218,-119.659 -34.1745,-27.9874 -77.5161,-41.9811 -129.831,-41.9811 -68.8348,0 -123.028,24.489 -162.353,73.6614 -47.164,59.9916 -70.6488,157.17 -70.6488,291.665zm89.9874 -0.356321c0,-117.813 13.6698,-196.139 41.1713,-234.816 27.5015,-38.839 61.4816,-58.1776 101.843,-58.1776 40.3291,0 74.3092,19.5005 101.811,58.3395 27.5015,39.001 41.1713,117.165 41.1713,234.654 0,117.845 -13.6698,196.171 -41.1713,234.848 -27.3396,38.839 -61.6436,58.1776 -102.815,58.1776 -40.3291,0 -72.6896,-17.1682 -96.8547,-51.3427 -30.1578,-43.5036 -45.1556,-124.162 -45.1556,-241.683z"
     id="path101" /></glyph>
   <glyph
   unicode="c"
   horiz-adv-x="500"
   id="glyph107"><path
     d="M405.008 189.984l86.003 -11.9854c-9.5235,-59.1494 -33.5266,-105.342 -72.3333,-138.836 -38.839,-33.4942 -86.6833,-50.1765 -143.176,-50.1765 -70.8432,0 -127.822,23.1933 -170.84,69.5151 -43.1473,46.3218 -64.6561,112.662 -64.6561,198.989 0,56.0073 9.32914,104.856 27.8255,146.837 18.4963,41.8516 46.6781,73.3374 84.6749,94.166 37.8349,20.9906 79.0062,31.5183 123.676,31.5183 56.1368,0 102.329,-14.1881 137.994,-42.6938 35.8265,-28.4733 58.8254,-68.9968 68.8348,-121.311l-84.9989 -13.0219c-8.163,34.8547 -22.513,61.0281 -43.3416,78.6823 -20.6666,17.4921 -45.6739,26.3354 -74.9895,26.3354 -44.3458,0 -80.3343,-15.8401 -108.192,-47.4879 -27.6635,-31.8422 -41.4953,-81.8568 -41.4953,-150.53 0,-69.6447 13.3459,-120.145 40.0052,-151.663 26.8213,-31.4859 61.676,-47.326 104.499,-47.326 34.6604,0 63.49,10.4953 86.4889,31.6802 23.1933,20.9906 37.8349,53.4806 44.0219,97.3082z"
     id="path105" /></glyph>
   <glyph
   unicode="t"
   horiz-adv-x="277"
   id="glyph111"><path
     d="M257.005 78.4879l11.9854 -77.6457c-24.651,-5.18286 -46.8077,-7.83907 -66.1462,-7.83907 -31.8422,0 -56.5255,4.9885 -74.1797,15.1599 -17.4921,10.1714 -29.8338,23.3229 -36.9926,39.8432 -7.15882,16.488 -10.6573,51.1483 -10.6573,103.981l0 299.018 -65.0125 0 0 67.9926 65.0125 0 0 128.341 87.979 52.8328 0 -181.173 88.0114 0 0 -67.9926 -88.0114 0 0 -304.007c0,-25.1693 1.52246,-41.3333 4.66457,-48.4921 3.01254,-7.15882 8.00104,-12.8276 14.9979,-17.1682 6.99686,-4.17868 17.0063,-6.349 29.9958,-6.349 9.68547,0 22.513,1.16614 38.3531,3.49843z"
     id="path109" /></glyph>
   <glyph
   unicode="R"
   horiz-adv-x="722"
   id="glyph115"><path
     d="M78.9915 0l0 716 317.35 0c63.8344,0 112.318,-6.50975 145.498,-19.3349 33.156,-12.8252 59.6565,-35.4879 79.5016,-67.988 19.8207,-32.5002 29.6582,-68.4981 29.6582,-107.848 0,-50.8392 -16.493,-93.6627 -49.3332,-128.495 -32.8402,-34.832 -83.5094,-56.8389 -152.178,-66.3363 25.1889,-11.9993 44.1837,-23.9986 57.1789,-35.6579 27.6664,-25.3346 53.8269,-57.1789 78.3356,-95.3387l123.831 -195.001 -118.341 0 -94.6586 148.996c-27.4964,43.1635 -50.3291,76.0038 -68.1581,98.8365 -17.999,22.8327 -34.0062,38.6699 -48.1673,47.8272 -14.0154,9.01163 -28.5166,15.3514 -43.1635,19.0192 -10.6877,2.16182 -28.1765,3.32775 -52.6853,3.32775l-109.67 0 0 -318.006 -94.9987 0zm94.9987 400.01l203.333 0c43.3336,0 76.9997,4.49367 101.338,13.481 24.3387,8.8416 42.8478,23.1728 55.3329,43.0178 12.6794,19.6507 18.9949,41.0017 18.9949,64.1502 0,33.8361 -12.1451,61.8426 -36.6538,83.6795 -24.5087,21.8368 -63.1786,32.6702 -116.01,32.6702l-226.335 0 0 -236.999z"
     id="path113" /></glyph>
   <glyph
   unicode="A"
   horiz-adv-x="667"
   id="glyph119"><path
     d="M-1.50599 0l274.673 716 104.156 0 291.506 -716 -107.824 0 -82.8293 217.008 -301.513 0 -77.6555 -217.008 -100.513 0zm206.005 294.008l243.994 0 -74.6678 198.499c-22.4927,60.3367 -39.4957,110.156 -51.325,149.481 -9.8375,-46.6613 -23.0027,-92.4968 -39.4957,-137.822l-78.5057 -210.158z"
     id="path117" /></glyph>
   <glyph
   unicode="&gt;"
   horiz-adv-x="583"
   id="glyph123"><path
     d="M527.983 312.991l-471.977 -203.005 0 87.9971 373.006 155.503 -373.006 153.519 0 87.9971 471.977 -200.008 0 -82.0037z"
     id="path121" /></glyph>
   <glyph
   unicode="-"
   horiz-adv-x="333"
   id="glyph127"><path
     d="M55.9936 190.997l0 137.01 270.006 0 0 -137.01 -270.006 0z"
     id="path125" /></glyph>
   <glyph
   unicode="q"
   horiz-adv-x="556"
   id="glyph131"><path
     d="M396.489 -198.989l0 254.64c-13.6698,-19.1442 -32.814,-34.9843 -57.3354,-47.6499 -24.489,-12.6656 -50.6624,-19.0146 -78.3259,-19.0146 -61.4816,0 -114.314,24.5214 -158.822,73.6938 -44.3458,48.978 -66.5025,116.323 -66.5025,201.646 0,52.0229 9.00522,98.6687 26.9833,140.002 18.1724,41.1713 44.3458,72.4952 78.6823,93.6802 34.3364,21.3145 72.0093,32.0041 112.986,32.0041 64.1703,0 114.509,-26.8537 151.339,-80.6906l0 69.677 79.0062 0 0 -717.988 -88.0114 0zm-270.999 459.979c0,-66.6645 14.0261,-116.647 42.0135,-149.979 27.9874,-33.3323 61.4816,-50.0146 100.677,-50.0146 37.4785,0 69.6447,15.8401 96.8223,47.5203 26.9833,31.8098 40.4911,79.978 40.4911,144.667 0,68.9968 -14.3176,120.825 -42.8234,155.648 -28.5057,34.8223 -61.838,52.1849 -100.353,52.1849 -38.1588,0 -70.4869,-16.1964 -96.9842,-48.5245 -26.4974,-32.3281 -39.8432,-82.8285 -39.8432,-151.501z"
     id="path129" /></glyph>
   <glyph
   unicode="O"
   horiz-adv-x="777"
   id="glyph135"><path
     d="M47.9973 348.49c0,118.682 32.0144,211.688 95.8245,278.851 63.8344,67.1622 146.178,100.658 247.176,100.658 66.1663,0 125.677,-15.8372 178.824,-47.3414 53.001,-31.48 93.517,-75.4937 121.353,-131.993 27.8365,-56.3288 41.8276,-120.333 41.8276,-191.843 0,-72.4817 -14.6712,-137.482 -44.0137,-194.661 -29.3182,-57.3247 -70.83,-100.658 -124.487,-130.001 -53.8269,-29.4882 -111.832,-44.1594 -174.014,-44.1594 -67.478,0 -127.645,16.323 -180.816,48.8231 -53.001,32.5002 -93.3469,76.8539 -120.673,133.183 -27.3264,56.1588 -41.0017,115.67 -41.0017,178.484zm98.0106 -1.65173c0,-86.1814 23.1485,-153.999 69.494,-203.503 46.3213,-49.5033 104.496,-74.3278 174.5,-74.3278 71.3401,0 129.831,24.9945 176.006,74.9836 45.9812,50.0134 68.9839,121.013 68.9839,213 0,58.1748 -9.8375,109.014 -29.4882,152.348 -19.675,43.3336 -48.5074,76.9997 -86.3271,100.828 -38.014,23.8286 -80.5218,35.8279 -127.669,35.8279 -67.0164,0 -124.681,-23.0027 -173.019,-68.9839 -48.3131,-46.0055 -72.4817,-122.689 -72.4817,-230.173z"
     id="path133" /></glyph>
   <glyph
   unicode="*"
   horiz-adv-x="389"
   id="glyph139"><path
     d="M31.0197 585l22.3131 69.0046c51.6725,-18.1826 89.0095,-33.8544 112.497,-47.1775 -6.15534,58.6782 -9.51648,99.1739 -9.84045,121.163l71.0294 0c-1.01239,-32.1536 -4.6975,-72.3253 -11.3388,-120.677 33.4899,16.8462 71.8393,32.518 114.967,46.6915l22.3536 -69.0046c-41.1841,-13.647 -81.5178,-22.8396 -121.163,-27.3346 19.8429,-17.1702 47.6634,-47.9874 83.664,-92.1681l-58.3543 -41.5081c-18.8305,25.6743 -41.1436,60.6625 -66.8179,104.843 -24.1759,-45.8411 -45.3147,-80.8294 -63.4972,-104.843l-57.3419 41.5081c37.499,46.489 64.5096,77.1847 80.6674,92.1681 -41.832,8.18012 -81.4773,17.3321 -119.138,27.3346z"
     id="path137" /></glyph>
   <glyph
   unicode="n"
   horiz-adv-x="556"
   id="glyph143"><path
     d="M65.9843 0l0 518.998 79.0062 0 0 -73.6614c37.9968,56.4931 92.9999,84.6749 164.847,84.6749 31.3239,0 59.9916,-5.66875 86.165,-16.8443 26.1734,-11.1755 45.8359,-26.0115 58.8254,-44.1839 12.9895,-18.14 22.1567,-39.8108 27.3396,-64.8181 3.1745,-16.326 4.82654,-44.8317 4.82654,-85.4848l0 -318.681 -87.979 0 0 315.344c0,35.8265 -3.33646,62.6478 -10.1714,80.3343 -6.83489,17.6541 -19.0146,31.8098 -36.3448,42.4994 -17.3302,10.4953 -37.8349,15.8077 -61.1577,15.8077 -37.349,0 -69.5151,-11.8234 -96.6603,-35.6645 -27.1776,-23.6468 -40.6854,-68.8348 -40.6854,-135.143l0 -283.178 -88.0114 0z"
     id="path141" /></glyph>
   <glyph
   unicode="L"
   horiz-adv-x="556"
   id="glyph147"><path
     d="M72.9918 0l0 716 94.9987 0 0 -632.005 352.012 0 0 -83.9952 -447.011 0z"
     id="path145" /></glyph>
   <glyph
   unicode="k"
   horiz-adv-x="499"
   id="glyph151"><path
     d="M66.3297 0l0 716.02 88.0144 0 0 -407.852 208.012 210.847 113.62 0 -197.997 -192.847 218.028 -326.168 -108.329 0 -172.344 265.177 -60.9912 -59.3376 0 -205.839 -88.0144 0z"
     id="path149" /></glyph>
   <glyph
   unicode="ó"
   horiz-adv-x="556"
   id="glyph155"><path
     d="M33.0083 259.499c0,95.8181 26.6593,166.823 80.1723,213.015 44.4754,38.3208 98.9926,57.4973 163.163,57.4973 71.1671,0 129.474,-23.3553 174.824,-70.001 45.1556,-46.5161 67.8307,-111.01 67.8307,-193.191 0,-66.6645 -10.0094,-118.979 -29.9958,-157.138 -20.0188,-38.1912 -49.1724,-67.863 -87.4931,-89.0156 -38.1912,-21.1525 -80.0104,-31.6802 -125.166,-31.6802 -72.6896,0 -131.353,23.1933 -176.185,69.677 -44.8317,46.5161 -67.1504,113.505 -67.1504,200.836zm89.9874 -0.161964c0,-66.3406 14.512,-115.999 43.5036,-148.845 29.1536,-32.9759 65.6603,-49.4963 109.844,-49.4963 43.6656,0 79.978,16.5204 109.164,49.6583 28.9916,33.1703 43.5036,83.6708 43.5036,151.501 0,64.0083 -14.674,112.5 -43.8599,145.347 -29.1536,33.0083 -65.4984,49.4963 -108.808,49.4963 -44.1839,0 -80.6906,-16.326 -109.844,-49.1724 -28.9916,-32.814 -43.5036,-82.3103 -43.5036,-148.489zm80.0104 323.669l64.0083 136.989 115.999 0 -107.026 -136.989 -72.9811 0z"
     id="path153" /></glyph>
   <glyph
   unicode="I"
   horiz-adv-x="277"
   id="glyph159"><path
     d="M93.0069 0l0 716 94.9987 0 0 -716 -94.9987 0z"
     id="path157" /></glyph>
   <glyph
   unicode="W"
   horiz-adv-x="943"
   id="glyph163"><path
     d="M200.501 0l-188.501 716.02 98.3134 0 107.337 -469.504c11.6691,-49.1803 22.0154,-98.03 30.8499,-146.36 18.8501,76.3453 29.8106,120.329 33.0231,131.998l135.305 483.866 114.187 0 102.66 -362.498c25.1807,-89.9986 43.8418,-174.517 55.8416,-253.366 9.49591,45.1646 21.6375,96.9906 36.4719,155.525l111.825 460.339 95.1954 0 -196.013 -716.02 -92.1718 0 -150.139 545.519c-12.7085,45.6371 -20.3619,73.6524 -23.1965,83.9987 -8.1731,-32.6924 -15.4958,-60.7077 -21.8264,-83.8569l-150.139 -545.661 -99.0221 0z"
     id="path161" /></glyph>
   <glyph
   unicode="h"
   horiz-adv-x="610"
   id="glyph167"><path
     d="M207.014 716.004l0 -265.328c44.5047,52.8063 97.8375,79.331 159.634,79.331 31.8701,0 60.5005,-5.83138 86.0128,-17.4941 25.5123,-11.8652 44.6667,-26.6866 57.6658,-45.0312 12.9991,-18.1421 21.8272,-38.3089 26.5247,-60.5005 4.81898,-22.1511 7.16773,-56.4915 7.16773,-102.98l0 -304.001 -137.037 0 0 273.67c0,54.3452 -2.63222,88.8475 -7.81566,103.507 -5.34543,14.6594 -14.6594,26.3222 -27.9825,34.8263 -13.3636,8.66607 -30.0073,12.9991 -50.1741,12.9991 -23.0015,0 -43.4923,-5.50741 -61.6749,-16.6842 -18.1826,-10.9743 -31.3436,-27.6585 -39.6858,-49.9717 -8.46359,-22.1916 -12.6346,-55.1956 -12.6346,-98.6879l0 -259.658 -136.997 0 0 716.004 136.997 0z"
     id="path165" /></glyph>
   <glyph
   unicode="5"
   horiz-adv-x="556"
   id="glyph171"><path
     d="M42.0135 188.008l91.9957 6.99686c6.83489,-44.8317 22.6426,-78.5203 47.326,-101.163 24.651,-22.513 54.8411,-33.8505 90.3437,-33.8505 42.8234,0 78.6499,16.0021 107.836,47.8443 28.9916,32.0041 43.4712,74.3416 43.4712,127.012 0,50.1441 -13.8318,89.6634 -41.6572,118.655 -27.8255,28.9916 -64.6561,43.5036 -110.492,43.5036 -28.5057,0 -53.9989,-6.51096 -76.6739,-19.5005 -22.4806,-13.0219 -40.1671,-29.8338 -53.1567,-50.5005l-82.9905 11.9854 68.9968 368.015 354.993 0 0 -83.9947 -284.83 0 -38.1912 -193.191c42.8558,30.1901 87.8494,45.188 134.851,45.188 62.3239,0 114.995,-21.6708 157.818,-65.0125 42.8558,-43.3416 64.3322,-98.9926 64.3322,-166.985 0,-64.8505 -18.8203,-120.858 -56.4931,-168.022 -45.8359,-57.9832 -108.484,-86.9748 -187.814,-86.9748 -65.0125,0 -118.007,18.3344 -159.179,54.8087 -41.1713,36.5068 -64.6561,84.8369 -70.4869,145.185z"
     id="path169" /></glyph>
   <glyph
   unicode="y"
   horiz-adv-x="500"
   id="glyph175"><path
     d="M61.9999 -199.508l-10.0094 81.3385c19.3385,-5.15046 36.0209,-7.83907 50.3385,-7.83907 19.6625,0 35.3406,3.33646 47.002,9.84743 11.8234,6.47857 21.5089,15.6458 28.9916,27.3396 5.50679,8.81086 14.512,30.6436 26.8537,65.6603 1.65204,4.82654 4.14629,11.9854 7.83907,21.5089l-197.013 520.65 94.0041 0 108.322 -299.666c14.1881,-37.8349 26.6593,-77.84 37.8349,-119.821 10.1714,39.4869 22.1567,78.4879 36.1828,116.809l110.654 302.679 87.8494 0 -196.171 -528.004c-21.1849,-56.8171 -37.6729,-95.8181 -49.4963,-117.327 -15.6781,-28.8296 -33.6886,-50.0146 -53.8369,-63.49 -20.3427,-13.5078 -44.5078,-20.1808 -72.4952,-20.1808 -17.0063,0 -36.0209,3.49843 -56.8495,10.4953z"
     id="path173" /></glyph>
   <glyph
   unicode="F"
   horiz-adv-x="610"
   id="glyph179"><path
     d="M82.0034 0l0 716 482.985 0 0 -83.9952 -387.986 0 0 -223.008 336.005 0 0 -83.9952 -336.005 0 0 -325.002 -94.9987 0z"
     id="path177" /></glyph>
   <glyph
   unicode="v"
   horiz-adv-x="500"
   id="glyph183"><path
     d="M207.824 0l-195.837 518.992 94.1929 0 110.999 -310.845c11.9867,-33.4899 23.1635,-68.3162 33.3279,-104.479 7.81566,27.3346 18.6685,60.1766 32.842,98.6474l115.332 316.676 90.3053 0 -196.485 -518.992 -84.6764 0z"
     id="path181" /></glyph>
   <glyph
   unicode="2"
   horiz-adv-x="556"
   id="glyph187"><path
     d="M503.014 84.021l0 -84.021 -474.024 0c-0.641382,21.1656 2.82208,41.5188 10.3476,61.1878 12.1435,32.1546 31.6415,63.9672 58.494,95.1383 26.8525,31.1712 65.1644,67.1741 115.021,108.009 77.4789,63.8389 130.158,114.337 157.652,151.665 27.6649,37.3284 41.476,72.6472 41.476,105.999 0,34.8484 -12.4856,64.181 -37.4995,88.1686 -24.9711,23.8167 -57.6389,35.8319 -97.8321,35.8319 -42.5022,0 -76.4955,-12.6566 -101.98,-38.0126 -25.4842,-25.1422 -38.3546,-60.1616 -38.654,-104.973l-90.0073 8.97935c6.15727,67.3451 29.5036,118.656 69.8251,154.017 40.4926,35.3188 94.668,52.9782 162.826,52.9782 68.6706,0 123.188,-18.9849 163.168,-57.1685 40.1933,-38.1408 60.1616,-85.4748 60.1616,-141.831 0,-28.6484 -5.8152,-56.8264 -17.6594,-84.4914 -11.6732,-27.836 -31.1712,-56.9975 -58.323,-87.6555 -27.3229,-30.5298 -72.5189,-72.69 -135.503,-126.01 -52.8499,-44.3409 -86.8431,-74.3148 -101.851,-90.1783 -14.9656,-15.8208 -27.3229,-31.6415 -37.1574,-47.6333l351.52 0z"
     id="path185" /></glyph>
   <glyph
   unicode="T"
   horiz-adv-x="610"
   id="glyph191"><path
     d="M259.013 0l0 631.985 -236.014 0 0 84.0271 567.005 0 0 -84.0271 -236.014 0 0 -631.985 -94.9759 0z"
     id="path189" /></glyph>
   <glyph
   unicode="í"
   horiz-adv-x="277"
   id="glyph195"><path
     d="M96.9842 0l0 518.998 88.0114 0 0 -518.998 -88.0114 0zm-28.9916 583.007l64.0083 136.989 115.999 0 -106.994 -136.989 -73.0135 0z"
     id="path193" /></glyph>
   <glyph
   unicode="e"
   horiz-adv-x="556"
   id="glyph199"><path
     d="M420.006 167.989l90.9915 -11.9854c-14.1557,-52.8328 -40.653,-94.0041 -79.3301,-123.158 -38.6771,-29.186 -88.0114,-43.8599 -148.165,-43.8599 -75.6697,0 -135.661,23.3553 -180.007,70.001 -44.3134,46.5161 -66.5025,112.015 -66.5025,196.171 0,87.0072 22.3511,154.676 67.1828,202.682 44.8317,48.1682 102.977,72.1713 174.5,72.1713 69.1588,0 125.652,-23.5172 169.479,-70.6812 43.8599,-47.164 65.8547,-113.505 65.8547,-198.989 0,-5.18286 -0.161964,-13.0219 -0.518286,-23.3553l-386.479 0c3.33646,-56.8171 19.3061,-100.483 48.3301,-130.64 28.8296,-30.1901 64.9801,-45.35 108.16,-45.35 32.1661,0 59.6676,8.51932 82.3427,25.4932 22.837,17.0063 40.815,44.1839 54.1609,81.5004zm-288.005 141.006l289.009 0c-3.85475,43.6656 -14.9979,76.35 -33.1703,98.1828 -27.8255,33.8181 -64.1703,50.8244 -108.678,50.8244 -40.3291,0 -74.1473,-13.5078 -101.649,-40.4911 -27.3396,-27.0156 -42.4994,-63.1661 -45.512,-108.516z"
     id="path197" /></glyph>
   <glyph
   unicode="C"
   horiz-adv-x="722"
   id="glyph203"><path
     d="M586.995 251.16l94.9987 -23.9986c-19.8207,-77.8255 -55.5029,-136.996 -106.998,-177.828 -51.4951,-40.8317 -114.504,-61.3326 -189.001,-61.3326 -76.9997,0 -139.668,15.6671 -188.006,47.1714 -48.3131,31.3343 -84.9911,76.8297 -110.156,136.316 -25.1646,59.6808 -37.844,123.515 -37.844,191.843 0,74.4978 14.1854,139.498 42.6777,195.001 28.4923,55.5029 69.0082,97.6706 121.499,126.503 52.491,28.8324 110.326,43.1635 173.334,43.1635 71.6559,0 131.822,-18.169 180.5,-54.6771 48.8231,-36.4838 82.8293,-87.663 101.994,-153.659l-92.9826 -22.0068c-16.5173,52.0051 -40.686,90.0192 -72.1902,113.678 -31.48,23.8286 -71.1458,35.6579 -118.997,35.6579 -54.8228,0 -100.828,-13.1652 -137.652,-39.4957 -36.8481,-26.3305 -62.8385,-61.8184 -77.6798,-106.172 -14.987,-44.4995 -22.4927,-90.335 -22.4927,-137.482 0,-60.8468 8.8416,-114.018 26.5005,-159.343 17.6589,-45.4954 45.1553,-79.3315 82.4893,-101.824 37.3339,-22.5169 77.6798,-33.6661 121.183,-33.6661 53.001,0 97.6706,15.3271 134.324,45.8355 36.6781,30.6541 61.5026,75.9795 74.4978,136.316z"
     id="path201" /></glyph>
   <glyph
   unicode="/"
   horiz-adv-x="277"
   id="glyph207"><path
     d="M0 -11.9867l207.986 739.977 70.8674 0 -208.026 -739.977 -70.8269 0z"
     id="path205" /></glyph>
   <glyph
   unicode="b"
   horiz-adv-x="556"
   id="glyph211"><path
     d="M146.999 0l-81.9863 0 0 716.012 87.979 0 0 -255.515c37.187,46.3218 84.513,69.5151 142.172,69.5151 31.8422,0 62.1619,-6.349 90.6676,-19.1766 28.5057,-12.8276 51.8286,-31 70.3249,-54.1609 18.3344,-23.3553 32.8464,-51.3427 43.1797,-84.189 10.4953,-32.652 15.6781,-67.8307 15.6781,-105.147 0,-88.6593 -22.0271,-157.332 -65.8547,-205.662 -43.9895,-48.5245 -96.6603,-72.6896 -158.174,-72.6896 -61.1577,0 -109.164,25.5256 -143.986,76.35l0 -65.3364zm-1.00418 263.322c0,-61.9999 8.51932,-106.832 25.3312,-134.495 27.6635,-45.1556 65.0125,-67.8307 112.176,-67.8307 38.4827,0 71.653,16.6823 99.5109,50.0146 27.9874,33.3323 41.9811,82.9905 41.9811,148.975 0,67.6687 -13.3135,117.521 -40.1671,149.687 -26.8213,32.1661 -59.3113,48.3301 -97.3405,48.3301 -38.4827,0 -71.653,-16.6823 -99.4785,-50.0146 -28.0198,-33.3323 -42.0135,-81.5004 -42.0135,-144.667z"
     id="path209" /></glyph>
   <glyph
   unicode="s"
   horiz-adv-x="500"
   id="glyph215"><path
     d="M31 155l87.0072 13.9937c4.82654,-34.8223 18.4963,-61.4816 40.815,-80.1723 22.3511,-18.4963 53.675,-27.8255 93.6802,-27.8255 40.4911,0 70.4869,8.163 90.1493,24.6834 19.5005,16.326 29.3479,35.6645 29.3479,57.8213 0,19.8244 -8.84325,35.5026 -26.3354,46.8401 -12.3417,7.83907 -42.3375,17.6541 -89.9874,29.8338 -64.3322,16.164 -108.84,30.1578 -133.847,41.9811 -24.8453,12.0178 -43.6656,28.3438 -56.4931,49.3343 -12.8276,20.8286 -19.3385,44.0219 -19.3385,69.3531 0,23.1609 5.34482,44.4754 15.8401,64.1703 10.6573,19.6625 25.0073,35.9885 43.1473,48.978 13.6698,10.0094 32.3605,18.4963 55.8453,25.4932 23.6792,7.02925 48.8484,10.5277 75.8317,10.5277 40.6854,0 76.35,-5.83071 106.994,-17.6865 30.838,-11.6614 53.513,-27.6635 68.187,-47.6499 14.4796,-20.1808 24.651,-47.002 30.1578,-80.6906l-86.003 -11.9854c-3.82236,27.0156 -15.1599,48.1682 -33.8181,63.328 -18.6907,15.1599 -45.0261,22.675 -79.1682,22.675 -40.1671,0 -68.9968,-6.67293 -86.165,-20.0188 -17.1682,-13.3135 -25.8495,-28.9916 -25.8495,-46.8077 0,-11.3375 3.49843,-21.6708 10.6573,-30.838 7.19122,-9.32914 18.3344,-17.1682 33.6886,-23.3229 8.81086,-3.33646 34.4984,-10.8516 77.4837,-22.513 61.9999,-16.488 105.342,-30.1578 129.993,-40.653 24.6834,-10.5277 44.0219,-26.0115 58.0156,-46.0303 14.1557,-20.1484 21.1525,-45.1556 21.1525,-75.1514 0,-29.1536 -8.48693,-56.6551 -25.6551,-82.5046 -17.1682,-25.8171 -41.8192,-45.8359 -73.9853,-59.9916 -32.3605,-14.1557 -68.8348,-21.1849 -109.52,-21.1849 -67.3124,0 -118.817,14.0261 -154.158,41.8516 -35.3406,27.9874 -57.8213,69.3207 -67.6687,124.162z"
     id="path213" /></glyph>
   <glyph
   unicode="="
   horiz-adv-x="583"
   id="glyph219"><path
     d="M527.983 420.993l-471.977 0 0 82.0037 471.977 0 0 -82.0037zm0 -216.976l-471.977 0 0 81.9632 471.977 0 0 -81.9632z"
     id="path217" /></glyph>
   <glyph
   unicode=","
   horiz-adv-x="277"
   id="glyph223"><path
     d="M89.0156 0l0 99.9968 99.9968 0 0 -99.9968c0,-36.8307 -6.51096,-66.6645 -19.6949,-89.3395 -12.9895,-22.675 -33.8181,-40.3291 -62.3239,-52.6708l-24.0031 37.9968c18.6907,8.19539 32.3281,20.1808 41.0094,35.8589 8.84325,15.8077 13.8318,38.4827 14.8359,68.1546l-49.8202 0z"
     id="path221" /></glyph>
   <glyph
   unicode="p"
   horiz-adv-x="556"
   id="glyph227"><path
     d="M65.9843 -198.989l0 717.988 80.0104 0 0 -68.1546c18.8526,26.3354 40.1671,46.1598 64.0083,59.3113 23.6792,13.1839 52.5088,19.8568 86.327,19.8568 44.3458,0 83.3468,-11.3375 117.165,-34.1745 33.8505,-22.675 59.3437,-54.8411 76.6739,-96.1744 17.1682,-41.4953 25.8171,-86.8453 25.8171,-136.342 0,-52.8328 -9.49111,-100.483 -28.4733,-142.982 -19.0146,-42.3375 -46.6781,-74.8275 -83.0229,-97.5025 -36.1504,-22.513 -74.3092,-33.8505 -114.314,-33.8505 -29.3479,0 -55.6833,6.18704 -78.8442,18.5287 -23.3229,12.3093 -42.3375,27.8255 -57.3354,46.6457l0 -253.15 -88.0114 0zm80.0104 455.314c0,-66.5025 13.5078,-115.643 40.3291,-147.485 27.0156,-31.8422 59.6676,-47.8443 98.0208,-47.8443 39.001,0 72.3333,16.5204 99.9968,49.4963 27.8255,33.0083 41.6572,83.9947 41.6572,153.186 0,65.9843 -13.5078,115.319 -40.653,148.165 -27.1776,32.814 -59.5057,49.1724 -97.1786,49.1724 -37.349,0 -70.3249,-17.5245 -98.9926,-52.3469 -28.8296,-35.0167 -43.1797,-85.6791 -43.1797,-152.344z"
     id="path225" /></glyph>
   <glyph
   unicode="N"
   horiz-adv-x="722"
   id="glyph231"><path
     d="M76.0038 0l0 716 97.3305 0 375.671 -562.001 0 562.001 90.9908 0 0 -716 -97.3305 0 -375.671 562.001 0 -562.001 -90.9908 0z"
     id="path229" /></glyph>
   <glyph
   unicode="Ó"
   horiz-adv-x="777"
   id="glyph235"><path
     d="M43.0064 353.649c0,73.0137 10.9743,134.365 32.842,184.012 16.1578,36.4866 38.4709,69.3286 66.6559,98.3235 28.1445,29.0354 59.0022,50.4981 92.4921,64.6716 44.6667,18.8305 96.1772,28.347 154.491,28.347 105.694,0 190.006,-32.842 253.503,-98.3235 63.3352,-65.684 95.0028,-156.84 95.0028,-273.67 0,-115.858 -31.5056,-206.528 -94.3144,-271.847 -62.8493,-65.4815 -146.999,-98.1615 -252.167,-98.1615 -106.504,0 -191.342,32.518 -254.191,97.6755 -62.8088,64.9955 -94.3144,154.653 -94.3144,268.972zm148.984 4.85948c0,-81.1938 18.8305,-142.666 56.3295,-184.66 37.499,-41.832 85.1624,-62.8493 142.828,-62.8493 57.8683,0 105.167,20.8148 142.342,62.3228 37.013,41.67 55.5196,103.993 55.5196,187.171 0,82.1657 -18.0206,143.517 -54.1832,183.85 -36.0006,40.4957 -83.826,60.6625 -143.679,60.6625 -59.6501,0 -107.799,-20.4908 -144.327,-61.3509 -36.4866,-40.9816 -54.8311,-102.657 -54.8311,-185.146zm112.011 422.491l67.9922 145.987 152.993 0 -134.972 -145.987 -86.0128 0z"
     id="path233" /></glyph>
   <glyph
   unicode="ä"
   horiz-adv-x="556"
   id="glyph239"><path
     d="M404.997 64.9955c-32.68,-27.8205 -64.1451,-47.3394 -94.3144,-58.8402 -30.1693,-11.5008 -62.5253,-17.1702 -97.1896,-17.1702 -56.9774,0 -100.834,13.8495 -131.489,41.67 -30.6552,27.6585 -46.0031,63.1732 -46.0031,106.342 0,25.3503 5.83138,48.5138 17.3321,69.4906 11.6628,21.0173 26.8486,37.661 45.5171,50.3361 18.8305,12.6751 39.8072,22.3536 63.3352,28.8329 17.3321,4.49502 43.4923,8.82806 78.3186,13.1611 70.9889,8.34211 123.512,18.5065 157.002,30.1693 0.323965,12.0272 0.485948,19.6809 0.485948,22.8396 0,35.6767 -8.34211,60.8245 -24.9858,75.5244 -22.5156,19.8024 -56.0055,29.6428 -100.348,29.6428 -41.5081,0 -72.1633,-7.32972 -91.8442,-21.8272 -19.8024,-14.4974 -34.2998,-40.1717 -43.8163,-77.1847l-86.0128 12.0272c7.85616,36.8106 20.6933,66.6559 38.6734,89.3334 18.0206,22.6776 44.0188,40.0097 77.9947,52.3204 33.8544,12.1892 73.3377,18.3445 118.004,18.3445 44.3428,0 80.5054,-5.18345 108.326,-15.6718 27.699,-10.4884 48.1898,-23.4875 61.189,-39.3213 12.9991,-15.8338 22.1511,-35.8387 27.4966,-60.0146 2.8347,-14.9834 4.33304,-41.994 4.33304,-80.8294l0 -116.668c0,-81.5178 1.82231,-132.988 5.50741,-154.855 3.48263,-21.8272 10.8123,-42.6419 21.5032,-62.6468l-92.0062 0c-8.82806,18.5065 -14.4974,40.1717 -17.0082,64.9955zm-7.00575 194.987c-31.9916,-12.9991 -79.9789,-23.9734 -144.003,-32.9635 -36.3246,-5.18345 -61.9989,-11.0148 -76.9823,-17.5346 -15.0239,-6.47931 -26.5247,-15.9958 -34.6643,-28.3065 -8.18012,-12.5132 -12.3512,-26.3627 -12.3512,-41.67 0,-23.1635 8.82806,-42.6824 26.6866,-58.1923 17.8181,-15.4693 43.8163,-23.3255 77.9947,-23.3255 33.8139,0 63.9832,7.32972 90.5078,22.1916 26.3222,14.6594 45.8006,34.8263 58.1518,60.3385 9.51648,19.8024 14.1735,48.9998 14.1735,87.4706l0.485948 31.9916zm-246.011 323.034l0 99.9838 92.0062 0 0 -99.9838 -92.0062 0zm182.028 0l0 99.9838 92.0062 0 0 -99.9838 -92.0062 0z"
     id="path237" /></glyph>
   <glyph
   unicode="K"
   horiz-adv-x="667"
   id="glyph243"><path
     d="M73.0137 0l0 716.004 95.0028 0 0 -354.985 355.633 354.985 128.331 0 -300.316 -290.354 313.355 -425.65 -125.01 0 -254.839 361.343 -117.154 -113.347 0 -247.995 -95.0028 0z"
     id="path241" /></glyph>
   <glyph
   unicode=":"
   horiz-adv-x="277"
   id="glyph247"><path
     d="M90.0144 418.998l0 100.004 100.004 0 0 -100.004 -100.004 0zm0 -418.998l0 100.004 100.004 0 0 -100.004 -100.004 0z"
     id="path245" /></glyph>
   <glyph
   unicode=")"
   horiz-adv-x="333"
   id="glyph251"><path
     d="M124.001 -209.988l-62.9837 0c97.319,156.155 145.979,312.481 145.979,468.978 0,61.1878 -7.01244,121.863 -20.9946,182.024 -10.989,48.8305 -26.5105,95.6514 -46.3505,140.634 -12.6566,29.2043 -38.996,78.0348 -78.6334,146.363l62.9837 0c61.0168,-81.6693 106.17,-163.681 135.503,-245.991 25.0139,-70.8513 37.4995,-145.038 37.4995,-222.517 0,-87.8266 -16.847,-172.831 -50.4981,-254.842 -33.5229,-82.0114 -74.3575,-153.504 -122.504,-214.649z"
     id="path249" /></glyph>
   <glyph
   unicode="m"
   horiz-adv-x="833"
   id="glyph255"><path
     d="M65.9843 0l0 518.998 79.0062 0 0 -73.3374c16.164,25.3312 37.8349,45.8359 64.8505,61.1577 26.9833,15.5162 57.6593,23.1933 92.1577,23.1933 38.3208,0 69.839,-8.00104 94.328,-23.8411 24.5214,-16.0021 41.8516,-38.1588 51.8286,-66.8265 41.3333,60.4775 94.8463,90.6676 160.831,90.6676 51.6666,0 91.5098,-14.1881 119.173,-42.6938 27.8255,-28.4733 41.8516,-72.3333 41.8516,-131.483l0 -355.836 -88.0114 0 0 326.682c0,34.9843 -3.01254,60.3155 -8.68129,75.8317 -5.63636,15.4838 -15.9697,27.8255 -31.1619,37.3166 -14.9979,9.49111 -32.652,14.1557 -52.8328,14.1557 -36.6687,0 -66.9884,-12.1473 -91.1535,-36.3124 -24.1651,-24.327 -36.1828,-63.1661 -36.1828,-116.517l0 -301.156 -87.979 0 0 336.821c0,39.001 -7.15882,68.3489 -21.5089,87.8494 -14.3176,19.5005 -37.8349,29.3155 -70.3249,29.3155 -24.6834,0 -47.5203,-6.47857 -68.5109,-19.5005 -20.9906,-12.9895 -36.1504,-31.9718 -45.6739,-57.141 -9.32914,-25.0073 -13.9937,-61.1901 -13.9937,-108.354l0 -268.99 -88.0114 0z"
     id="path253" /></glyph>
   <glyph
   unicode="Y"
   horiz-adv-x="666"
   id="glyph259"><path
     d="M278.83 0l0 303.35 -275.996 412.671 113.998 0 141.494 -216.705c26.3618,-40.1568 50.8338,-80.3137 73.1799,-120.471 21.8264,37.5112 48.3299,79.5106 79.1799,126.14l138.659 211.036 110.502 0 -286.011 -412.671 0 -303.35 -95.0064 0z"
     id="path257" /></glyph>
   <glyph
   unicode="H"
   horiz-adv-x="722"
   id="glyph263"><path
     d="M80.9913 0l0 716.004 95.0028 0 0 -295.011 370.009 0 0 295.011 95.0028 0 0 -716.004 -95.0028 0 0 337.005 -370.009 0 0 -337.005 -95.0028 0z"
     id="path261" /></glyph>
   <glyph
   unicode="7"
   horiz-adv-x="556"
   id="glyph267"><path
     d="M47.0155 622.985l0 84.0285 462.987 0 0 -68.0327c-45.5171,-48.4733 -90.8318,-112.983 -135.499,-193.488 -44.8287,-80.5054 -79.331,-163.319 -103.831,-248.481 -17.4941,-59.8526 -28.8329,-125.658 -33.6924,-197.011l-89.9814 0c1.01239,56.3295 11.9867,124.484 33.166,204.341 21.1792,79.9789 51.3485,157.002 90.8318,231.149 39.4833,74.1881 81.5178,136.673 126.023,187.495l-350.004 0z"
     id="path265" /></glyph>
   <glyph
   unicode="á"
   horiz-adv-x="556"
   id="glyph271"><path
     d="M405.008 65.0125c-32.6844,-27.8579 -64.1703,-47.3584 -94.328,-58.8578 -30.1901,-11.4995 -62.5182,-17.1682 -97.1786,-17.1682 -57.0114,0 -100.839,13.8318 -131.515,41.6896 -30.6436,27.6635 -45.9979,63.1661 -45.9979,106.313 0,25.3312 5.83071,48.5245 17.3302,69.5151 11.6938,20.9906 26.8537,37.6729 45.512,50.3385 18.8203,12.6656 39.8432,22.3187 63.328,28.8296 17.3302,4.50261 43.5036,8.84325 78.3259,13.1515 71.0052,8.35736 123.514,18.4963 157.008,30.1901 0.356321,11.9854 0.518286,19.6625 0.518286,22.8046 0,35.6969 -8.35736,60.8338 -25.0073,75.5078 -22.513,19.8244 -56.0073,29.6719 -100.353,29.6719 -41.4953,0 -72.1389,-7.32079 -91.8014,-21.8328 -19.8568,-14.512 -34.3364,-40.1671 -43.8599,-77.1598l-86.003 11.9854c7.83907,36.8307 20.6666,66.6645 38.6771,89.3395 18.0104,22.675 43.9895,40.0052 78.002,52.3469 33.8505,12.1473 73.3374,18.3344 118.007,18.3344 44.3134,0 80.4963,-5.18286 108.322,-15.6781 27.6635,-10.4953 48.1682,-23.4848 61.1577,-39.3249 13.0219,-15.8401 22.1891,-35.8265 27.5015,-60.024 2.85057,-14.9979 4.34064,-41.9811 4.34064,-80.8202l0 -116.679c0,-81.5004 1.84639,-132.973 5.50679,-154.805 3.49843,-21.8328 10.8192,-42.6938 21.5089,-62.6802l-91.9957 0c-8.84325,18.4963 -14.512,40.1671 -17.0063,65.0125zm-6.99686 194.973c-32.0041,-12.9895 -80.0104,-23.9707 -144.019,-32.9759 -36.3124,-5.18286 -61.9999,-11.0136 -76.9978,-17.5245 -14.9979,-6.47857 -26.4974,-15.9697 -34.6604,-28.3114 -8.163,-12.5036 -12.3417,-26.3354 -12.3417,-41.6572 0,-23.1933 8.84325,-42.6938 26.6593,-58.1776 17.8485,-15.5162 43.8599,-23.3229 78.002,-23.3229 33.8505,0 64.0083,7.32079 90.5057,22.1567 26.3354,14.674 45.8359,34.8223 58.1776,60.3155 9.49111,19.8568 14.1557,49.0104 14.1557,87.5255l0.518286 31.9718zm-184.996 323.022l63.9759 136.989 115.999 0 -106.994 -136.989 -72.9811 0z"
     id="path269" /></glyph>
   <glyph
   unicode="j"
   horiz-adv-x="222"
   id="glyph275"><path
     d="M65.4984 614.007l0 102.005 88.0114 0 0 -102.005 -88.0114 0zm-111.334 -814.68l16.164 74.5036c17.6865,-4.50261 31.5183,-6.83489 41.6572,-6.83489 18.0104,0 31.3563,5.99268 40.1671,17.8485 8.84325,11.8234 13.3459,41.6572 13.3459,89.1452l0 545.01 88.0114 0 0 -546.824c0,-63.8463 -8.35736,-108.354 -25.0073,-133.329 -21.1849,-32.5224 -56.3312,-48.8484 -105.504,-48.8484 -23.8411,0 -46.6781,3.1745 -68.8348,9.32914z"
     id="path273" /></glyph>
   <glyph
   unicode="4"
   horiz-adv-x="556"
   id="glyph279"><path
     d="M322.989 0l0 171.002 -311.004 0 0 80.9822 327.006 464.028 72.0093 0 0 -464.028 96.9842 0 0 -80.9822 -96.9842 0 0 -171.002 -88.0114 0zm0 251.984l0 322.179 -224.483 -322.179 224.483 0z"
     id="path277" /></glyph>
   <glyph
   unicode="x"
   horiz-adv-x="500"
   id="glyph283"><path
     d="M5.99268 0l189.498 268.828 -175.505 250.17 108.192 0 81.9863 -122.51c15.1599,-22.9989 27.1776,-41.6572 35.6645,-56.3312 14.8359,20.8286 28.0198,39.6813 39.8432,56.4931l86.327 122.348 107.512 0 -176.509 -250.17 188.008 -268.828 -107.026 0 -107.318 159.988 -24.489 38.5151 -138.674 -198.503 -107.512 0z"
     id="path281" /></glyph>
   <glyph
   unicode="g"
   horiz-adv-x="556"
   id="glyph287"><path
     d="M49.8202 -42.9853l84.9989 -12.0178c3.49843,-26.3354 13.5078,-45.512 29.8338,-57.6593 21.8328,-16.164 51.6666,-24.327 89.5015,-24.327 40.6854,0 72.1713,8.163 94.3604,24.327 22.1567,16.164 37.1546,39.001 44.9937,68.1546 4.50261,17.8485 6.67293,55.327 6.31661,112.5 -38.4827,-45.3176 -86.327,-67.9926 -143.662,-67.9926 -71.3291,0 -126.656,25.6551 -165.657,77.1598 -39.163,51.3427 -58.6635,113.019 -58.6635,184.834 0,49.4963 9.00522,95.1702 26.8213,137.022 17.8485,41.8192 43.8275,73.9853 77.84,96.8223 34.0125,22.837 73.9853,34.1745 119.983,34.1745 61.1901,0 111.691,-25.0073 151.339,-75.0219l0 64.0083 81.0145 0 0 -448.155c0,-80.8526 -8.163,-138.026 -24.6834,-171.682 -16.326,-33.6562 -42.4994,-60.3155 -78.002,-79.816 -35.6645,-19.5005 -79.4921,-29.3479 -131.483,-29.3479 -61.838,0 -111.658,13.8318 -149.687,41.6572 -38.1588,27.6635 -56.4931,69.5151 -55.165,125.36zm72.0093 311.328c0,-67.8307 13.5078,-117.327 40.4911,-148.521 27.1776,-31.1619 61.0281,-46.8077 101.681,-46.8077 40.4911,0 74.3416,15.4838 101.843,46.4838 27.3072,31 40.977,79.654 40.977,145.995 0,63.328 -14.1557,111.172 -42.3375,143.338 -28.1494,32.1661 -62.1619,48.1682 -101.811,48.1682 -39.163,0 -72.3333,-15.8401 -99.8348,-47.4879 -27.3396,-31.6802 -41.0094,-78.6823 -41.0094,-141.168z"
     id="path285" /></glyph>
   <glyph
   unicode="V"
   horiz-adv-x="667"
   id="glyph291"><path
     d="M281.008 0l-276.667 716.012 102.653 0 186 -520.359c14.8359,-41.6572 27.5015,-80.6582 37.5109,-117.165 10.9812,39.163 23.8411,78.164 38.4827,117.165l193.029 520.359 96.6603 0 -279.162 -716.012 -98.5067 0z"
     id="path289" /></glyph>
   <glyph
   unicode="E"
   horiz-adv-x="667"
   id="glyph295"><path
     d="M78.9915 0l0 716 517.015 0 0 -83.9952 -422.017 0 0 -219.996 395.006 0 0 -84.0195 -395.006 0 0 -243.994 439.02 0 0 -83.9952 -534.018 0z"
     id="path293" /></glyph>
   <glyph
   unicode="B"
   horiz-adv-x="722"
   id="glyph299"><path
     d="M72.9899 715.995l286.342 0c56.8434,0 99.0038,-2.337 126.835,-6.98739 27.9968,-4.83924 52.8304,-14.683 74.8312,-29.5076 22.0008,-14.9898 40.3428,-34.8425 55.0021,-59.6761 14.6594,-24.8336 22.0008,-52.8304 22.0008,-83.6599 0,-33.3318 -8.99391,-64.1613 -27.0053,-91.9928 -17.9878,-27.9968 -42.4909,-48.8409 -73.3204,-62.8393 43.4824,-12.8417 76.8141,-34.4885 100.326,-65.1763 23.3228,-30.6643 35.0078,-66.6635 35.0078,-108.163 0,-32.6708 -7.50673,-64.3265 -22.6854,-95.156 -15.1551,-30.8295 -35.834,-55.4979 -62.1548,-74.005 -26.1791,-18.3419 -58.4958,-29.6728 -96.9973,-33.9927 -24.0074,-2.50224 -82.1727,-4.17827 -174.331,-4.83924l-243.851 0 0 715.995zm145.012 -118.998l0 -165.006 94.6603 0c56.1824,0 91.1666,0.849818 104.835,2.50224 24.6683,2.83273 44.1669,11.3309 58.3306,25.5182 14.1636,14.1636 21.1746,32.6472 21.1746,55.6631 0,22.1661 -6.16118,39.9887 -18.3419,53.8218 -12.1571,13.8332 -30.3338,22.1661 -54.3175,24.9988 -14.3525,1.67603 -55.4979,2.50224 -123.342,2.50224l-82.9989 0zm0 -284.005l0 -191.988 133.988 0c52.0042,0 85.1707,1.48718 99.1691,4.31991 21.5051,4.01303 38.9972,13.5027 52.4999,28.6814 13.5027,15.3203 20.3484,35.5035 20.3484,60.9981 0,21.6704 -5.16973,39.8234 -15.6744,54.8369 -10.3395,14.9898 -25.4945,25.9903 -45.1584,32.836 -19.6638,6.82215 -62.5089,10.3158 -128.346,10.3158l-116.826 0z"
     id="path297" /></glyph>
   <glyph
   unicode="1"
   horiz-adv-x="556"
   id="glyph303"><path
     d="M372 0l-88.0114 0 0 560.332c-21.1525,-20.3427 -48.978,-40.4911 -83.3144,-60.6718 -34.3364,-20.1484 -65.3364,-35.3406 -92.676,-45.3176l0 84.9989c49.1724,22.9989 92.1577,50.9864 128.988,83.9947 36.8631,32.8464 63.0041,64.6561 78.3583,95.6561l56.6551 0 0 -718.992z"
     id="path301" /></glyph>
   <glyph
   unicode="u"
   horiz-adv-x="556"
   id="glyph307"><path
     d="M405.008 0l0 77.1598c-40.3291,-58.8254 -95.0083,-88.1734 -164.167,-88.1734 -30.5141,0 -59.0198,5.83071 -85.5172,17.5245 -26.4974,11.8234 -46.1598,26.4974 -58.9874,44.1515 -12.8276,17.8485 -21.8328,39.5193 -27.0156,65.1744 -3.49843,17.3302 -5.31243,44.6698 -5.31243,81.9863l0 321.175 87.979 0 0 -287.163c0,-45.8359 1.84639,-76.8359 5.34482,-92.676 5.50679,-23.1609 17.1682,-41.1713 35.1786,-54.3228 17.8161,-13.1839 39.8108,-19.8244 66.1462,-19.8244 26.3354,0 51.0188,6.64054 74.0177,20.1484 22.9989,13.5078 39.3249,32.0041 48.978,55.165 9.5235,23.1609 14.35,57.0114 14.35,101.163l0 277.51 88.0114 0 0 -518.998 -79.0062 0z"
     id="path305" /></glyph>
   <glyph
   unicode="d"
   horiz-adv-x="556"
   id="glyph311"><path
     d="M400.991 0l0 65.8223c-32.814,-51.1483 -81.1441,-76.8359 -144.99,-76.8359 -41.3333,0 -79.3301,11.3375 -113.829,34.1745 -34.6604,22.675 -61.514,54.5172 -80.6582,95.1702 -19.0146,40.8474 -28.5057,87.6551 -28.5057,140.682 0,51.6666 8.64889,98.4743 25.8171,140.65 17.3302,42.0135 43.1797,74.3416 77.6781,96.6603 34.3364,22.513 72.9811,33.6886 115.481,33.6886 31.3563,0 59.1818,-6.67293 83.5088,-19.8568 24.327,-13.1515 44.1839,-30.4817 59.5057,-51.6666l0 257.523 88.0114 0 0 -716.012 -82.0187 0zm-277.996 258.819c0,-66.3082 13.9937,-115.804 42.1755,-148.651 27.9874,-32.8464 61.1577,-49.1724 99.3165,-49.1724 38.5151,0 71.1671,15.6781 98.1828,47.002 26.8213,31.3239 40.3291,79.1682 40.3291,143.5 0,70.6812 -13.6698,122.672 -41.1713,155.842 -27.3396,33.1703 -61.1577,49.6583 -101.325,49.6583 -39.163,0 -71.8474,-15.8401 -98.1828,-47.6499 -26.141,-31.8422 -39.3249,-82.0187 -39.3249,-150.53z"
     id="path309" /></glyph>
   <glyph
   unicode="S"
   horiz-adv-x="667"
   id="glyph315"><path
     d="M46.0055 230.003l88.999 7.99145c4.15361,-35.998 13.9911,-65.4862 29.4882,-88.6589 15.4971,-23.0027 39.4957,-41.6576 71.9959,-56.013 32.5002,-14.1611 69.1783,-21.3267 109.84,-21.3267 36.168,0 68.0123,5.34383 95.6788,16.1772 27.6664,10.8334 48.1673,25.6504 61.6483,44.4995 13.5053,18.8248 20.3551,39.3257 20.3551,61.3326 0,22.3226 -6.50975,41.8276 -19.505,58.6606 -12.9952,16.663 -34.5163,30.6784 -64.5146,42.1677 -19.1649,7.33562 -61.6483,18.9949 -127.499,34.832 -65.8262,15.8372 -111.832,30.6784 -138.162,44.6695 -34.1519,17.999 -59.4865,40.3216 -76.1738,66.8221 -16.8331,26.5005 -25.1646,56.3531 -25.1646,89.169 0,36.338 10.3476,70.1742 30.8485,101.508 20.5009,31.5043 50.3291,55.3329 89.8249,71.6559 39.3257,16.3473 83.1694,24.5087 131.337,24.5087 53.001,0 99.8324,-8.50154 140.324,-25.6747 40.5159,-17.0031 71.6801,-42.1677 93.517,-75.4937 21.8125,-33.156 33.4961,-70.83 35.1478,-112.828l-90.9908 -6.99555c-4.83373,45.1553 -21.3267,79.3315 -49.5033,102.334 -28.1523,23.1485 -69.8341,34.662 -124.827,34.662 -57.3247,0 -99.1766,-10.4933 -125.337,-31.5043 -26.1605,-21.011 -39.3257,-46.3213 -39.3257,-76.0038 0,-25.6747 9.32741,-46.8314 27.8365,-63.4944 18.3148,-16.493 65.8262,-33.6661 142.826,-51.0093 76.9997,-17.4889 129.831,-32.6702 158.493,-45.6654 41.5118,-19.1649 72.336,-43.3336 92.181,-72.8218 19.8207,-29.3425 29.6582,-63.1786 29.6582,-101.508 0,-38.1598 -10.8334,-73.842 -32.6702,-107.508 -21.8368,-33.6661 -53.001,-59.8266 -93.8327,-78.4814 -40.8317,-18.6791 -86.6672,-28.0065 -137.822,-28.0065 -64.6846,0 -118.852,9.49744 -162.501,28.3223 -43.8437,18.8491 -78.0199,47.1714 -102.844,85.1855 -24.9945,37.8197 -37.9897,80.6675 -39.3257,128.495z"
     id="path313" /></glyph>
   <glyph
   unicode=" "
   horiz-adv-x="277"
   id="glyph317" />
   <glyph
   unicode="ú"
   horiz-adv-x="556"
   id="glyph321"><path
     d="M404.999 0l0 77.155c-40.3299,-58.8326 -94.9878,-88.1587 -164.154,-88.1587 -30.5115,0 -59.013,5.84976 -85.5044,17.4977 -26.5172,11.8284 -46.1796,26.5172 -59.013,44.1696 -12.8334,17.8328 -21.8271,39.5052 -27.0068,65.172 -3.47893,17.3431 -5.30859,44.6592 -5.30859,81.9997l0 321.17 87.9784 0 0 -287.179c0,-45.8188 1.85543,-76.82 5.33436,-92.6685 5.51475,-23.1671 17.1627,-41.1545 35.1759,-54.3229 17.8328,-13.1684 39.8402,-19.8428 66.177,-19.8428 26.311,0 50.9986,6.6744 73.9853,20.1778 23.0125,13.5034 39.3248,32.0062 49.0143,55.1733 9.48331,23.1671 14.3281,57.003 14.3281,101.147l0 277.516 88.0041 0 0 -519.005 -79.0104 0zm-190.001 582.992l64.0124 137.018 115.99 0 -106.997 -137.018 -73.0061 0z"
     id="path319" /></glyph>
   <glyph
   unicode="."
   horiz-adv-x="277"
   id="glyph325"><path
     d="M90.9915 0l0 99.9968 99.9968 0 0 -99.9968 -99.9968 0z"
     id="path323" /></glyph>
   <glyph
   unicode="P"
   horiz-adv-x="667"
   id="glyph329"><path
     d="M76.9978 0l0 716.012 270.351 0c47.4879,0 83.8327,-2.33229 108.97,-6.83489 35.1786,-5.83071 64.6885,-17.0063 88.5297,-33.3323 23.8088,-16.5204 42.9853,-39.5193 57.4973,-68.9968 14.4796,-29.5099 21.6708,-61.9999 21.6708,-97.5025 0,-60.6718 -19.3385,-112.176 -58.1776,-154.19 -38.6771,-42.1431 -108.84,-63.1661 -210.165,-63.1661l-183.668 0 0 -291.989 -95.0083 0zm95.0083 375.984l184.996 0c61.3197,0 104.661,11.3375 130.511,34.1745 25.6551,22.837 38.4827,54.8411 38.4827,96.3364 0,29.8338 -7.48275,55.5214 -22.675,76.8359 -15.1599,21.3469 -35.1463,35.5026 -59.8296,42.3375 -16.0021,4.17868 -45.4796,6.31661 -88.3353,6.31661l-183.149 0 0 -256.001z"
     id="path327" /></glyph>
   <glyph
   unicode="r"
   horiz-adv-x="332"
   id="glyph333"><path
     d="M65.0125 0l0 518.998 78.9738 0 0 -79.4921c20.1808,36.8307 38.839,61.1577 56.0073,72.8192 17.1682,11.8558 36.0209,17.6865 56.4931,17.6865 29.6719,0 59.862,-9.32914 90.5057,-27.8579l-31.3239 -81.1441c-21.3469,11.9854 -42.6614,17.978 -64.0083,17.978 -19.1442,0 -36.3124,-5.83071 -51.5046,-17.3302 -15.1599,-11.4995 -25.9791,-27.5015 -32.49,-48.0062 -9.84743,-31.1619 -14.674,-65.304 -14.674,-102.491l0 -271.161 -87.979 0z"
     id="path331" /></glyph>
   <glyph
   unicode="a"
   horiz-adv-x="556"
   id="glyph337"><path
     d="M405.008 65.0125c-32.6844,-27.8579 -64.1703,-47.3584 -94.328,-58.8578 -30.1901,-11.4995 -62.5182,-17.1682 -97.1786,-17.1682 -57.0114,0 -100.839,13.8318 -131.515,41.6896 -30.6436,27.6635 -45.9979,63.1661 -45.9979,106.313 0,25.3312 5.83071,48.5245 17.3302,69.5151 11.6938,20.9906 26.8537,37.6729 45.512,50.3385 18.8203,12.6656 39.8432,22.3187 63.328,28.8296 17.3302,4.50261 43.5036,8.84325 78.3259,13.1515 71.0052,8.35736 123.514,18.4963 157.008,30.1901 0.356321,11.9854 0.518286,19.6625 0.518286,22.8046 0,35.6969 -8.35736,60.8338 -25.0073,75.5078 -22.513,19.8244 -56.0073,29.6719 -100.353,29.6719 -41.4953,0 -72.1389,-7.32079 -91.8014,-21.8328 -19.8568,-14.512 -34.3364,-40.1671 -43.8599,-77.1598l-86.003 11.9854c7.83907,36.8307 20.6666,66.6645 38.6771,89.3395 18.0104,22.675 43.9895,40.0052 78.002,52.3469 33.8505,12.1473 73.3374,18.3344 118.007,18.3344 44.3134,0 80.4963,-5.18286 108.322,-15.6781 27.6635,-10.4953 48.1682,-23.4848 61.1577,-39.3249 13.0219,-15.8401 22.1891,-35.8265 27.5015,-60.024 2.85057,-14.9979 4.34064,-41.9811 4.34064,-80.8202l0 -116.679c0,-81.5004 1.84639,-132.973 5.50679,-154.805 3.49843,-21.8328 10.8192,-42.6938 21.5089,-62.6802l-91.9957 0c-8.84325,18.4963 -14.512,40.1671 -17.0063,65.0125zm-6.99686 194.973c-32.0041,-12.9895 -80.0104,-23.9707 -144.019,-32.9759 -36.3124,-5.18286 -61.9999,-11.0136 -76.9978,-17.5245 -14.9979,-6.47857 -26.4974,-15.9697 -34.6604,-28.3114 -8.163,-12.5036 -12.3417,-26.3354 -12.3417,-41.6572 0,-23.1933 8.84325,-42.6938 26.6593,-58.1776 17.8485,-15.5162 43.8599,-23.3229 78.002,-23.3229 33.8505,0 64.0083,7.32079 90.5057,22.1567 26.3354,14.674 45.8359,34.8223 58.1776,60.3155 9.49111,19.8568 14.1557,49.0104 14.1557,87.5255l0.518286 31.9718z"
     id="path335" /></glyph>
   <glyph
   unicode="&lt;"
   horiz-adv-x="583"
   id="glyph341"><path
     d="M56.0055 312.991l0 82.0037 471.977 200.008 0 -87.9971 -373.977 -153.519 373.977 -155.503 0 -87.9971 -471.977 203.005z"
     id="path339" /></glyph>
   <glyph
   unicode="o"
   horiz-adv-x="556"
   id="glyph345"><path
     d="M33.0083 259.499c0,95.8181 26.6593,166.823 80.1723,213.015 44.4754,38.3208 98.9926,57.4973 163.163,57.4973 71.1671,0 129.474,-23.3553 174.824,-70.001 45.1556,-46.5161 67.8307,-111.01 67.8307,-193.191 0,-66.6645 -10.0094,-118.979 -29.9958,-157.138 -20.0188,-38.1912 -49.1724,-67.863 -87.4931,-89.0156 -38.1912,-21.1525 -80.0104,-31.6802 -125.166,-31.6802 -72.6896,0 -131.353,23.1933 -176.185,69.677 -44.8317,46.5161 -67.1504,113.505 -67.1504,200.836zm89.9874 -0.161964c0,-66.3406 14.512,-115.999 43.5036,-148.845 29.1536,-32.9759 65.6603,-49.4963 109.844,-49.4963 43.6656,0 79.978,16.5204 109.164,49.6583 28.9916,33.1703 43.5036,83.6708 43.5036,151.501 0,64.0083 -14.674,112.5 -43.8599,145.347 -29.1536,33.0083 -65.4984,49.4963 -108.808,49.4963 -44.1839,0 -80.6906,-16.326 -109.844,-49.1724 -28.9916,-32.814 -43.5036,-82.3103 -43.5036,-148.489z"
     id="path343" /></glyph>
   <glyph
   unicode="M"
   horiz-adv-x="833"
   id="glyph349"><path
     d="M75.0079 0l0 716 142 0 169.326 -506.838c15.6671,-47.1714 27.0106,-82.4893 34.1762,-106.002 8.16148,26.0147 20.9867,64.3445 38.3298,114.844l172.314 497.996 126.843 0 0 -716 -90.9908 0 0 598.994 -209.016 -598.994 -85.3312 0 -206.66 609.998 0 -609.998 -90.9908 0z"
     id="path347" /></glyph>
   <glyph
   unicode="9"
   horiz-adv-x="556"
   id="glyph353"><path
     d="M55.0031 166.013l83.9947 6.99686c7.15882,-39.6813 20.8286,-68.3489 41.0094,-86.165 20.1484,-17.8485 45.9979,-26.8537 77.6457,-26.8537 27.0156,0 50.6948,6.18704 71.1671,18.6907 20.5047,12.3093 37.187,28.8296 50.0146,49.6583 12.8276,20.6666 23.6792,48.6541 32.49,83.8327 8.84325,35.1463 13.1839,71.0052 13.1839,107.48 0,3.85475 -0.161964,9.84743 -0.518286,17.6865 -17.4921,-28.0198 -41.4953,-50.8244 -71.815,-68.187 -30.3521,-17.4921 -63.328,-26.141 -98.6687,-26.141 -59.1818,0 -109.164,21.4765 -150.173,64.4942 -40.8474,42.8234 -61.3197,99.4785 -61.3197,169.836 0,72.6572 21.3145,130.997 64.1379,175.31 42.6938,44.1839 96.1744,66.3406 160.669,66.3406 46.3542,0 88.8536,-12.5036 127.498,-37.6729 38.5151,-24.9749 67.6687,-60.6394 87.6875,-107.156 19.9864,-46.3218 29.9958,-113.505 29.9958,-201.322 0,-91.5098 -9.84743,-164.329 -29.6719,-218.522 -19.8244,-54.3228 -49.4963,-95.4942 -88.6593,-123.806 -39.163,-28.3438 -84.9989,-42.4994 -137.67,-42.4994 -56.0073,0 -101.681,15.4838 -137.151,46.6457 -35.3406,31.1619 -56.6875,75.0219 -63.8463,131.353zm359.01 315.83c0,50.3385 -13.3459,90.3113 -40.0052,119.821 -26.4974,29.5099 -58.8254,44.3458 -96.8547,44.3458 -39.3249,0 -73.305,-15.8401 -101.973,-47.6823 -28.862,-31.8422 -43.1797,-73.1755 -43.1797,-123.838 0,-45.4796 13.6698,-82.5046 40.8474,-110.816 27.3072,-28.5057 61.3197,-42.6614 101.811,-42.6614 40.6854,0 74.0177,14.1557 100.159,42.6614 26.1734,28.3114 39.1954,67.8307 39.1954,118.169z"
     id="path351" /></glyph>
   <glyph
   unicode="("
   horiz-adv-x="333"
   id="glyph357"><path
     d="M234.019 -209.988c-48.3602,61.1451 -89.3659,132.638 -122.846,214.649 -33.5229,82.0114 -50.1561,167.016 -50.1561,254.842 0,77.4789 12.4856,151.665 37.4995,222.517 29.3325,82.3107 74.4858,164.322 135.503,245.991l62.9837 0c-39.3381,-67.6872 -65.5065,-116.005 -78.1631,-144.995 -19.8401,-44.854 -35.4898,-91.6749 -46.8209,-140.505 -14.0249,-60.8458 -21.0373,-121.991 -21.0373,-183.521 0,-156.497 48.7023,-312.823 146.021,-468.978l-62.9837 0z"
     id="path355" /></glyph>
   <glyph
   unicode="l"
   horiz-adv-x="222"
   id="glyph361"><path
     d="M64.0083 0l0 716.012 87.979 0 0 -716.012 -87.979 0z"
     id="path359" /></glyph>
   <glyph
   unicode="J"
   horiz-adv-x="499"
   id="glyph365"><path
     d="M29.0024 203.333l84.9911 11.6593c2.33185,-54.8228 12.5094,-92.3268 30.6784,-112.658 18.169,-20.1608 43.5036,-30.3384 75.6637,-30.3384 23.6586,0 44.1594,5.51386 61.3326,16.3473 17.1731,10.9791 29.1724,25.8204 35.6579,44.4995 6.50975,18.6548 9.66747,48.6531 9.66747,89.6548l0 493.502 94.9987 0 0 -487.843c0,-59.8266 -7.16559,-106.148 -21.6668,-139.158 -14.5012,-32.8402 -37.3339,-57.8348 -68.8139,-75.1536 -31.3343,-17.1731 -68.1824,-25.8447 -110.35,-25.8447 -62.8385,0 -110.836,17.999 -144.162,54.167 -33.326,36.168 -49.3332,89.8249 -47.9973,161.165z"
     id="path363" /></glyph>
   <glyph
   unicode="z"
   horiz-adv-x="500"
   id="glyph369"><path
     d="M19.5078 0l0 71.666 328.669 379.333c-37.3405,-2.01005 -70.1714,-2.98931 -98.5182,-2.98931l-210.153 0 0 70.996 422.987 0 0 -57.8276 -281.33 -329.004 -53.8333 -61.1777c39.5052,3.35008 76.5108,4.99936 111.017,4.99936l240.149 0 0 -75.9954 -458.987 0z"
     id="path367" /></glyph>
   <glyph
   unicode="X"
   horiz-adv-x="667"
   id="glyph373"><path
     d="M4.33304 0l276.666 371.507 -243.662 344.497 112.821 0 130.518 -183.162c27.1726,-38.0254 46.0031,-67.0203 56.8154,-87.1872 16.1578,25.0263 35.1907,51.6725 57.0179,79.8575l142.99 190.492 103.831 0 -248.643 -340.326 267.636 -375.678 -116.304 0 -180.692 255.325c-10.3264,14.4974 -20.1668,28.9949 -29.3189,43.3304 -15.9958,-23.9734 -27.3346,-40.8196 -34.3403,-50.3361l-181.502 -248.319 -113.833 0z"
     id="path371" /></glyph>
   <glyph
   unicode="%"
   horiz-adv-x="889"
   id="glyph377"><path
     d="M58.0156 544.168c0,50.9864 12.8276,94.49 38.6447,130.155 25.8495,35.8589 63.1661,53.675 112.176,53.675 44.9937,0 82.3427,-16.0021 111.82,-48.0062 29.5099,-32.0041 44.3458,-79.1682 44.3458,-141.168 0,-60.4775 -14.9979,-107.156 -44.8317,-139.808 -29.8338,-32.6844 -66.6645,-49.0104 -110.33,-49.0104 -43.5036,0 -79.6864,16.164 -108.516,48.3301 -28.8296,32.1661 -43.3093,80.8202 -43.3093,145.833zm153.315 122.834c-21.8328,0 -40.0052,-9.32914 -54.4848,-28.1818 -14.512,-18.8203 -21.8328,-53.3186 -21.8328,-103.495 0,-45.6415 7.32079,-77.84 21.9948,-96.3364 14.674,-18.6583 32.814,-27.9874 54.3228,-27.9874 22.1567,0 40.4911,9.32914 55.0031,28.1818 14.512,18.8203 21.6708,53.1567 21.6708,102.977 0,45.9979 -7.35318,78.3259 -21.9948,96.8547 -14.674,18.6583 -32.8464,27.9874 -54.6791,27.9874zm0.518286 -693.013l390.496 754.009 71.653 0 -389.492 -754.009 -72.6572 0zm308.153 194.163c0,51.3427 12.8276,94.8463 38.6771,130.511 25.6551,35.5026 63.1661,53.351 112.306,53.351 45.0261,0 82.3427,-16.0021 111.853,-48.0062 29.5099,-32.0041 44.1515,-79.1682 44.1515,-141.168 0,-60.5099 -14.8359,-107.188 -44.6698,-139.84 -29.8338,-32.652 -66.8265,-49.0104 -110.816,-49.0104 -43.3416,0 -79.3301,16.164 -108.16,48.5245 -28.8296,32.3281 -43.3416,80.9822 -43.3416,145.638zm153.51 122.834c-22.1891,0 -40.3615,-9.32914 -54.8411,-28.1494 -14.512,-18.8203 -21.6708,-53.351 -21.6708,-103.495 0,-45.35 7.32079,-77.3542 21.9948,-96.1744 14.512,-18.8203 32.49,-28.1818 53.9989,-28.1818 22.513,0 40.8474,9.36154 55.327,28.1818 14.512,18.8203 21.6708,53.1567 21.6708,103.009 0,45.9979 -7.32079,78.3259 -21.9948,96.8223 -14.512,18.6583 -32.652,27.9874 -54.4848,27.9874z"
     id="path375" /></glyph>
   <glyph
   unicode="i"
   horiz-adv-x="222"
   id="glyph381"><path
     d="M65.9843 616.015l0 99.9968 88.0114 0 0 -99.9968 -88.0114 0zm0 -616.015l0 518.998 88.0114 0 0 -518.998 -88.0114 0z"
     id="path379" /></glyph>
   <glyph
   unicode="G"
   horiz-adv-x="777"
   id="glyph385"><path
     d="M412.009 280.988l0 84.0195 302.995 0 0 -265.345c-46.5156,-36.9939 -94.5129,-65.0004 -144.016,-83.6552 -49.479,-18.6791 -100.318,-28.0065 -152.323,-28.0065 -70.3199,0 -134.154,15.0113 -191.673,45.1553 -57.3247,30.0226 -100.828,73.6719 -130.001,130.511 -29.3182,57.0089 -43.9894,120.673 -43.9894,190.823 0,69.6884 14.5012,134.689 43.6736,195.171 29.1481,60.3367 71,105.176 125.653,134.349 54.6771,29.3182 117.661,43.9894 189.001,43.9894 51.6651,0 98.4964,-8.33151 140.348,-25.1646 41.8276,-16.8331 74.6678,-40.1759 98.3264,-70.0041 23.8286,-29.9983 41.8276,-69.154 54.167,-117.321l-85.5012 -23.3428c-10.8334,36.338 -24.1687,65.0004 -40.0058,86.0113 -16.0072,20.8166 -38.6699,37.4797 -68.3281,49.9891 -29.5125,12.5094 -62.3285,18.8248 -98.4964,18.8248 -43.1635,0 -80.4975,-6.65549 -112.172,-19.8207 -31.5043,-13.1652 -56.8389,-30.5084 -76.3439,-52.1752 -19.3349,-21.4968 -34.3219,-45.1553 -44.9853,-70.83 -18.169,-44.4995 -27.3264,-92.4968 -27.3264,-144.332 0,-64.0045 10.9791,-117.491 32.816,-160.679 22.0068,-42.9935 53.9969,-74.9836 95.8488,-95.8245 41.9976,-20.8409 86.4971,-31.3343 133.669,-31.3343 40.9774,0 80.9833,8.01574 119.993,23.8286 38.9856,16.0072 68.4981,32.8402 88.6589,51.0093l0 134.154 -209.988 0z"
     id="path383" /></glyph>
  </font>
</defs>
</svg>
